<svg version="1.1" xmlns="http://www.w3.org/2000/svg" viewBox="0 0 710.2857142857142 897.2860554997408" width="1420.5714285714284" height="1794.5721109994815">
  <!-- svg-source:excalidraw -->
  
  <defs>
    <style class="style-fonts">
      @font-face {
        font-family: "Virgil";
        src: url("https://excalidraw.com/Virgil.woff2");
      }
      @font-face {
        font-family: "Cascadia";
        src: url("https://excalidraw.com/Cascadia.woff2");
      }
    </style>
  </defs>
  <rect x="0" y="0" width="710.2857142857142" height="897.2860554997408" fill="#ffffff"></rect><g stroke-linecap="round"><g transform="translate(367.1428571428569 11.428912642598107) rotate(0 1.6605996234659415 436.7944387275191)"><path d="M0.91 -1.43 C-2.02 283.33, -3.07 571.04, 2.85 874.63 M0.21 0.47 C-0.13 288.68, 1.7 577.69, 4.77 875.02" stroke="#1e1e1e" stroke-width="4" fill="none"></path></g></g><mask></mask><g stroke-linecap="round" transform="translate(10 774.2860554997408) rotate(0 345 56.5)"><path d="M-0.91 -0.64 L690.06 -3.64 L691.86 110.61 L-2.89 112.15" stroke="none" stroke-width="0" fill="#4dabf7"></path><path d="M-0.94 -0.07 C202.63 0.93, 403.62 0.83, 688.82 0.12 M0.11 0.42 C242.77 0.08, 485.03 -0.44, 689.96 0.16 M693.66 -3.79 C692.21 42.73, 692.15 91.08, 689.26 111.16 M688.25 -0.17 C691.33 25.66, 693.14 53.37, 691.21 111.01 M691.31 111.93 C532.99 108.55, 376.18 107.78, -0.77 113.71 M690.21 113.44 C444.09 113.45, 196.1 114.38, 0.4 112.45 M3.93 115.74 C-1.48 86.16, 0.56 65.01, 1.03 -3.22 M-0.89 114.3 C-2.1 87, -3.85 57.89, -0.08 -0.03" stroke="#1971c2" stroke-width="4" fill="none"></path></g><g transform="translate(261.6500015258789 810.0860554997407) rotate(0 93.3499984741211 20.700000000000003)"><text x="93.3499984741211" y="0" font-family="Helvetica, Segoe UI Emoji" font-size="36px" fill="#1e1e1e" text-anchor="middle" style="white-space: pre;" direction="ltr" dominant-baseline="text-before-edge">Host Kernel</text></g><g stroke-linecap="round" transform="translate(391.4285714285711 286.42891264259777) rotate(0 151.42857142857144 110.71428571428567)"><path d="M2.42 -1.22 L300.77 1.64 L305.15 218.13 L-2.93 217.78" stroke="none" stroke-width="0" fill="#9775fa"></path><path d="M0.78 1.71 C81.8 -1.72, 158.81 -0.5, 304.35 -1.76 M1.16 0.28 C116.79 2.64, 235.72 2.85, 302.53 0.72 M304.13 -2.41 C297.99 42.11, 300.69 90.01, 305.86 219.21 M303.97 -1.08 C297.83 69.87, 299.26 140.51, 302.33 219.81 M301.01 220.98 C240.26 220.62, 178.37 218.01, 2.09 223.6 M302.19 222.64 C227.28 219.19, 149.51 220.81, 1.04 220.05 M0.15 224.05 C3.3 154, 2.16 87.85, -3.09 -0.69 M-0.11 222.41 C-2.33 142.83, -3.71 68.24, 0.3 0.2" stroke="#1e1e1e" stroke-width="4" fill="none"></path></g><g stroke-linecap="round" transform="translate(14.28571428571422 646.4289126425978) rotate(0 343 56.5)"><path d="M-2.84 1.87 L686.59 -1.39 L682.82 116.3 L-1.47 113.16" stroke="none" stroke-width="0" fill="#69db7c"></path><path d="M-0.38 -1.51 C221.1 -3.96, 443.51 -3.9, 685.32 -0.78 M-0.12 -0.74 C235.82 5.46, 469.58 5.13, 686.74 -0.66 M687.55 1.26 C689.18 36.19, 688.74 68.11, 682.7 111.03 M685.77 1.16 C684.2 42.57, 686.03 86.95, 686.02 115 M684.71 112.83 C493.19 111.43, 298.53 111.38, -0.74 111.7 M685.66 112.29 C419.17 117.79, 151.94 118.2, 0.05 113 M-1.7 110.85 C-1.55 85.47, -1.23 49.81, -0.72 1.68 M-0.02 113.58 C2.1 68.65, 0.2 27.75, -0.9 1.82" stroke="#2f9e44" stroke-width="4" fill="none"></path></g><g transform="translate(172.35237993512828 682.2289126425977) rotate(0 184.93333435058594 20.699999999999996)"><text x="184.93333435058594" y="0" font-family="Helvetica, Segoe UI Emoji" font-size="36px" fill="#1e1e1e" text-anchor="middle" style="white-space: pre;" direction="ltr" dominant-baseline="text-before-edge">Host Operating System</text></g><g stroke-linecap="round" transform="translate(18.85714285714272 132.85748407116932) rotate(0 161.49999999999997 246.5)"><path d="M2.8 3.84 L326.75 1.51 L322.48 496.68 L-2.44 491.78" stroke="none" stroke-width="0" fill="#ffd43b"></path><path d="M-0.85 -2.24 C93.83 1.7, 191.95 1.36, 321.23 1.42 M-1.01 0.38 C71.43 -2.9, 141.31 -2.83, 323.78 0.67 M324.33 1.41 C319.59 114.58, 319.55 231.71, 324.5 493.81 M322.54 -0.47 C323.51 162.08, 323.44 322.14, 323.74 493.38 M325.33 492.41 C245.09 497.73, 174.12 497.63, 2.6 490.31 M323.86 493.52 C220.31 497.77, 115.71 496.68, -1.32 492.28 M-0.78 492.97 C-2.84 386.94, -0.36 280.3, 0.82 -0.39 M-0.61 493.14 C1.65 335.19, 3.2 176.85, 0.24 -0.57" stroke="#f08c00" stroke-width="4" fill="none"></path></g><g transform="translate(113.24047415597079 556.4574840711693) rotate(0 67.11666870117188 32.19999999999999)"><text x="67.11666870117188" y="0" font-family="Helvetica, Segoe UI Emoji" font-size="28px" fill="#1e1e1e" text-anchor="middle" style="white-space: pre;" direction="ltr" dominant-baseline="text-before-edge">Hypervisor</text><text x="67.11666870117188" y="32.199999999999996" font-family="Helvetica, Segoe UI Emoji" font-size="28px" fill="#1e1e1e" text-anchor="middle" style="white-space: pre;" direction="ltr" dominant-baseline="text-before-edge"></text></g><g stroke-linecap="round" transform="translate(410.285714285714 413.57176978545505) rotate(0 134 35)"><path d="M-0.32 -2.03 L265.91 -3.74 L271.58 69.78 L2.31 68.31" stroke="none" stroke-width="0" fill="#ffffff"></path><path d="M0.33 -2.02 C101.14 -2.37, 209.06 0.14, 269.03 -0.56 M-0.05 -0.32 C71.56 4.31, 141.28 2.7, 268.77 -1.26 M265.55 3.75 C271.12 26.13, 267.6 52.07, 265.03 67.69 M267.51 1.51 C269.68 25.8, 267.44 52.46, 266.98 68.59 M267.48 71.65 C205.88 69.8, 146.59 65.33, -1.36 69.63 M268.71 70.38 C194.43 73.7, 120.67 72.64, -0.85 70.3 M-3.34 68.4 C3.23 46.13, 0.45 23.08, -0.04 -1.44 M0.4 71.39 C-2.07 46.44, -0.85 21.97, 1.34 1.42" stroke="#1e1e1e" stroke-width="4" fill="none"></path></g><g transform="translate(462.85237993512806 437.07176978545505) rotate(0 81.43333435058594 11.5)"><text x="81.43333435058594" y="0" font-family="Helvetica, Segoe UI Emoji" font-size="20px" fill="#1e1e1e" text-anchor="middle" style="white-space: pre;" direction="ltr" dominant-baseline="text-before-edge">Files and Libraries</text></g><g stroke-linecap="round" transform="translate(410.285714285714 312.1431983568837) rotate(0 134 35)"><path d="M-1.37 -3.11 L269.05 -0.78 L267.51 69.34 L3.25 68.53" stroke="none" stroke-width="0" fill="#ffffff"></path><path d="M0.09 -0.98 C104.84 -4.69, 215.86 -4.43, 266.65 1.67 M0.87 0.26 C97.2 -3.06, 197.3 -1.29, 267.78 0.88 M265.08 -1.62 C266.88 17.85, 266.07 36.85, 268.21 73 M268.46 -0.11 C268.35 16.21, 266.79 33.66, 269.06 71.99 M270.56 67.34 C202.97 73.9, 144.73 72.37, -0.1 71.48 M266.91 68.88 C170.14 67.91, 69.2 66.39, -1.26 70.47 M-3.4 72.93 C1.56 52, 1.66 38.93, 1.52 1.76 M-0.28 71.03 C0.88 48.68, 1.47 29.35, -0.93 1.52" stroke="#1e1e1e" stroke-width="4" fill="none"></path></g><g transform="translate(495.4523822239464 335.6431983568837) rotate(0 48.83333206176758 11.5)"><text x="48.83333206176758" y="0" font-family="Helvetica, Segoe UI Emoji" font-size="20px" fill="#1e1e1e" text-anchor="middle" style="white-space: pre;" direction="ltr" dominant-baseline="text-before-edge">Application</text></g><g transform="translate(59.999999999999545 22.864626928312077) rotate(0 114.80000305175781 16.80000000000001)"><text x="0" y="0" font-family="Cascadia, Segoe UI Emoji" font-size="28px" fill="#1e1e1e" text-anchor="start" style="white-space: pre;" direction="ltr" dominant-baseline="text-before-edge">Virtualization</text></g><g transform="translate(411.2357112339562 25.721769785454967) rotate(0 131.1999969482422 16.80000000000001)"><text x="0" y="0" font-family="Cascadia, Segoe UI Emoji" font-size="28px" fill="#1e1e1e" text-anchor="start" style="white-space: pre;" direction="ltr" dominant-baseline="text-before-edge">Containerization</text></g><g stroke-linecap="round"><g transform="translate(15.714285714285495 79.14319835688366) rotate(0 339.2857142857142 5.684341886080802e-14)"><path d="M0 0 C228.23 0, 456.47 0, 678.57 0 M0 0 C195.06 0, 390.11 0, 678.57 0" stroke="#1e1e1e" stroke-width="4" fill="none"></path></g></g><mask></mask><g stroke-linecap="round" transform="translate(392.9285714285711 526.7146269283122) rotate(0 153 49)"><path d="M-3.72 -1.35 L304.75 -1.39 L305.82 98.47 L-1.63 99.89" stroke="none" stroke-width="0" fill="#ff8787"></path><path d="M-1.65 1.37 C70.52 -0.54, 136.86 -2.03, 308 2.71 M0.48 -0.49 C121.84 3.78, 243.22 3.71, 306.37 0.91 M308.52 -2.29 C304.45 35.06, 303.77 76.15, 308.38 101.27 M304.84 1.22 C307.93 29.95, 306.28 62.99, 307.96 96.51 M306.61 100.62 C241.34 99.98, 176.18 101.38, -2.77 99.55 M305.36 98.38 C223.57 98.67, 140.19 99.95, -0.25 99.35 M1.8 97.97 C1.92 67.01, -4.5 39.88, -0.45 2.25 M1.09 99.47 C2.06 66.09, 3.67 33.04, -1.65 1.46" stroke="#e03131" stroke-width="4" fill="none"></path></g><g transform="translate(429.4785744803289 559.6146269283122) rotate(0 116.44999694824219 16.099999999999994)"><text x="116.44999694824219" y="0" font-family="Helvetica, Segoe UI Emoji" font-size="28px" fill="#1e1e1e" text-anchor="middle" style="white-space: pre;" direction="ltr" dominant-baseline="text-before-edge">Container Runtime</text></g><g stroke-linecap="round" transform="translate(45.92857142857133 438.42891264259777) rotate(0 136.5 39)"><path d="M0.11 2.47 L274.7 -1.77 L274.66 78.66 L2.3 80.97" stroke="none" stroke-width="0" fill="#ffffff"></path><path d="M-1.02 0.41 C69.73 1.93, 140.1 -0.97, 275.55 -2.47 M-0.4 0.4 C102.15 -1.78, 201.05 0.06, 274.05 0.49 M274.94 -1.48 C275.11 23.51, 273.56 49.44, 275.75 77.11 M272.77 -0.62 C272.54 18.48, 270.94 38.96, 271.79 77.23 M273.06 78.38 C192.68 72.37, 115.48 77.51, 2.28 78.33 M273.73 78.4 C214.2 74.04, 154.61 75.1, 0.9 79.08 M-0.13 78.07 C0.66 52.57, -2.52 33.72, -1.1 1.98 M0.23 78.98 C1.86 59.05, -0.3 36.71, -0.13 1.07" stroke="#1e1e1e" stroke-width="4" fill="none"></path></g><g transform="translate(124.46190425327836 465.92891264259777) rotate(0 57.96666717529297 11.5)"><text x="57.96666717529297" y="0" font-family="Helvetica, Segoe UI Emoji" font-size="20px" fill="#1e1e1e" text-anchor="middle" style="white-space: pre;" direction="ltr" dominant-baseline="text-before-edge">Guest Kernel</text></g><g stroke-linecap="round" transform="translate(48.071428571428214 349.14319835688354) rotate(0 134 36.5)"><path d="M1.66 0.66 L270.3 2.97 L266.8 69.63 L-1.02 76.61" stroke="none" stroke-width="0" fill="#ffffff"></path><path d="M1.07 -0.67 C86.55 -5.52, 170.17 -3.99, 268.45 -0.8 M-1.48 0.68 C88.36 3.67, 175.26 4.19, 267.66 0.76 M267.55 -3.98 C271.15 18.3, 266.82 36.03, 264.77 72.54 M266.87 -1.66 C267.12 18.86, 268.05 39.33, 266.7 73.04 M266.39 75.3 C186.64 69.46, 98.12 68.22, -1.9 74.47 M269.17 72.66 C181.7 70.32, 93.65 70.57, 0.28 72.95 M-1.19 76.29 C-1.83 52.95, -2.17 25.61, -1.94 0.46 M-1.6 72.86 C-0.54 48.6, -0.35 23.31, 0.85 -0.88" stroke="#1e1e1e" stroke-width="4" fill="none"></path></g><g transform="translate(73.20475987025634 374.14319835688354) rotate(0 108.86666870117188 11.5)"><text x="108.86666870117188" y="0" font-family="Helvetica, Segoe UI Emoji" font-size="20px" fill="#1e1e1e" text-anchor="middle" style="white-space: pre;" direction="ltr" dominant-baseline="text-before-edge">Guest Operating System</text></g><g stroke-linecap="round" transform="translate(47.35714285714266 257.8574840711693) rotate(0 134 35)"><path d="M-1.2 -3.37 L266.98 3.61 L271.04 66.61 L-0.69 73.33" stroke="none" stroke-width="0" fill="#ffffff"></path><path d="M2.23 -0.96 C75.14 2.54, 150.19 5.15, 265.63 -2.95 M0.67 1.01 C91.59 -0.55, 183.29 -0.88, 266.74 -0.18 M266.42 -2.37 C265.73 13.58, 267.72 28.99, 264.33 67.73 M267.71 0.06 C265.85 15.21, 267.39 28.83, 266.16 68.98 M265.45 69.1 C166.12 71.92, 68.84 72.43, -2.82 72.35 M268.08 71.34 C193.65 72.87, 118.76 73.7, -0.65 69.53 M-1.45 66.66 C-1.55 43.71, 2.34 17.62, 3.25 -3.2 M0.06 71.24 C0.94 48.6, 0.92 29.29, 1.15 1.48" stroke="#1e1e1e" stroke-width="4" fill="none"></path></g><g transform="translate(99.92380850655672 281.3574840711693) rotate(0 81.43333435058594 11.5)"><text x="81.43333435058594" y="0" font-family="Helvetica, Segoe UI Emoji" font-size="20px" fill="#1e1e1e" text-anchor="middle" style="white-space: pre;" direction="ltr" dominant-baseline="text-before-edge">Files and Libraries</text></g><g stroke-linecap="round" transform="translate(43.92857142857133 163.5717697854551) rotate(0 134 36.5)"><path d="M3.04 -3.39 L267.31 3.33 L268.01 75.69 L-3.03 70.15" stroke="none" stroke-width="0" fill="#ffffff"></path><path d="M0.81 1.81 C69.85 -1.88, 145.79 3.21, 268.98 1.34 M-0.58 0.44 C96.37 -2.23, 193.68 -0.97, 267.65 -0.62 M266.76 0.92 C263.15 15.31, 263.49 32.74, 266.46 72.42 M268.24 -1.51 C265.21 21.11, 268.51 45.72, 268.21 71.38 M268.8 74.99 C192.47 77.32, 121.91 76.79, 2.18 73.16 M268.03 73.78 C164.11 72.4, 62.81 72.43, 0.78 72.43 M1.95 74.13 C3.96 53.99, 0.43 41.13, 2.13 0.11 M0.83 73.33 C0.53 48.07, -1.22 18.5, -0.51 1.8" stroke="#1e1e1e" stroke-width="4" fill="none"></path></g><g transform="translate(129.09523936680375 188.5717697854551) rotate(0 48.83333206176758 11.5)"><text x="48.83333206176758" y="0" font-family="Helvetica, Segoe UI Emoji" font-size="20px" fill="#1e1e1e" text-anchor="middle" style="white-space: pre;" direction="ltr" dominant-baseline="text-before-edge">Application</text></g></svg>