<?xml version="1.0" standalone="no"?>
<!DOCTYPE svg PUBLIC "-//W3C//DTD SVG 20010904//EN"
 "http://www.w3.org/TR/2001/REC-SVG-20010904/DTD/svg10.dtd">
<svg version="1.0" xmlns="http://www.w3.org/2000/svg"
 width="2744.000000pt" height="2744.000000pt" viewBox="0 0 2744.000000 2744.000000"
 preserveAspectRatio="xMidYMid meet">
<metadata>
Created by potrace 1.14, written by Peter Selinger 2001-2017
</metadata>
<g transform="translate(0.000000,2744.000000) scale(0.100000,-0.100000)"
fill="#000000" stroke="none">
<path d="M13226 20052 c-2 -1 -19 -3 -39 -4 -23 -1 -34 -5 -30 -12 5 -8 3 -8
-8 0 -15 12 -143 13 -155 1 -4 -4 -13 -2 -21 4 -7 6 -13 7 -13 2 0 -4 -24 -9
-52 -9 -101 -2 -157 -7 -169 -15 -7 -4 -22 -3 -32 3 -17 8 -19 8 -14 -5 5 -13
2 -15 -18 -7 -14 5 -25 6 -25 1 0 -4 -17 -8 -37 -10 -75 -3 -93 -6 -93 -14 0
-5 -4 -5 -10 -2 -5 3 -10 2 -10 -4 0 -5 -13 -9 -28 -9 -15 1 -37 -4 -47 -10
-11 -5 -33 -13 -50 -16 -16 -3 -47 -9 -67 -14 -20 -6 -39 -7 -42 -4 -4 3 -6 0
-6 -6 0 -7 -3 -11 -7 -10 -5 1 -21 -4 -38 -11 -16 -7 -40 -14 -52 -14 -11 -1
-19 -6 -16 -11 3 -5 0 -7 -7 -4 -8 2 -22 -4 -32 -14 -10 -10 -27 -18 -38 -18
-11 0 -20 -4 -20 -9 0 -9 -54 -31 -73 -31 -4 1 -15 -6 -23 -15 -9 -8 -20 -13
-25 -10 -5 4 -9 1 -9 -4 0 -6 -7 -11 -15 -11 -8 0 -24 -9 -34 -19 -11 -11 -22
-17 -25 -13 -3 3 -6 0 -6 -7 0 -7 -4 -10 -9 -7 -5 3 -19 -3 -32 -13 -13 -10
-37 -25 -54 -34 -16 -8 -40 -24 -51 -36 -12 -11 -24 -18 -26 -15 -3 2 -17 -7
-32 -21 -14 -13 -27 -24 -29 -23 -2 2 -60 -34 -67 -42 -9 -10 -60 -40 -66 -40
-3 1 -14 -9 -25 -21 -10 -12 -19 -18 -19 -13 0 5 -7 -2 -16 -14 -8 -12 -22
-22 -30 -22 -8 0 -14 -5 -14 -10 0 -6 -12 -16 -27 -23 -16 -6 -30 -14 -33 -17
-3 -4 -29 -21 -57 -40 -29 -18 -53 -37 -53 -42 0 -4 -4 -7 -9 -6 -5 2 -25 -12
-45 -30 -20 -18 -36 -30 -36 -28 0 3 -21 -15 -47 -40 -27 -25 -61 -57 -78 -73
-16 -15 -40 -33 -53 -40 -12 -7 -20 -16 -17 -22 4 -5 -1 -9 -10 -9 -8 0 -18
-7 -21 -15 -4 -8 -11 -15 -17 -15 -6 0 -26 -16 -44 -36 -18 -20 -33 -34 -33
-30 0 6 -101 -85 -133 -121 -12 -13 -25 -23 -31 -23 -6 0 -37 -27 -69 -60 -32
-33 -61 -60 -63 -60 -3 0 -18 -14 -34 -30 -17 -17 -30 -28 -30 -25 0 4 -100
-89 -145 -136 -5 -5 -20 -20 -33 -32 -13 -12 -50 -48 -84 -79 -33 -32 -64 -58
-69 -58 -5 0 -12 -7 -15 -15 -4 -8 -9 -13 -13 -11 -4 3 -16 -9 -26 -25 -11
-16 -26 -29 -32 -29 -7 0 -13 -7 -13 -17 0 -9 -2 -14 -5 -11 -3 3 -45 -33 -94
-81 -115 -112 -298 -283 -314 -293 -6 -4 -8 -8 -2 -8 5 0 -7 -12 -28 -27 -20
-14 -37 -30 -37 -35 0 -4 -7 -8 -15 -8 -8 0 -15 -4 -15 -9 0 -11 -58 -71 -69
-71 -4 0 -13 -11 -19 -25 -7 -16 -17 -23 -27 -19 -10 4 -15 0 -15 -10 0 -9 -7
-16 -15 -16 -8 0 -15 -4 -15 -9 0 -5 -30 -40 -67 -77 -38 -38 -67 -72 -65 -77
1 -5 -2 -5 -8 -2 -12 7 -92 -70 -82 -79 3 -3 -1 -6 -8 -6 -7 0 -25 -12 -40
-27 -15 -16 -38 -37 -51 -49 -13 -11 -31 -31 -39 -42 -8 -12 -20 -22 -28 -22
-7 0 -10 -4 -7 -10 3 -5 2 -10 -3 -10 -4 0 -19 -10 -32 -22 -13 -13 -40 -35
-58 -50 -19 -16 -31 -28 -26 -28 5 0 -2 -8 -16 -18 -45 -30 -80 -65 -80 -79 0
-7 -5 -13 -10 -13 -13 0 -156 -142 -153 -152 2 -4 -4 -5 -12 -2 -8 4 -15 1
-15 -7 0 -14 -58 -69 -73 -69 -6 0 -8 -2 -5 -5 7 -7 -54 -72 -64 -68 -3 2 -15
-8 -26 -22 -11 -14 -25 -25 -31 -25 -6 0 -11 -5 -11 -11 0 -5 -24 -33 -52 -60
-166 -158 -206 -198 -200 -203 3 -3 1 -6 -5 -6 -10 0 -63 -45 -63 -54 0 -3
-15 -20 -32 -38 -18 -19 -51 -56 -73 -83 -22 -28 -43 -51 -47 -53 -5 -2 -8
-11 -8 -20 0 -8 -3 -12 -7 -9 -12 13 -81 -109 -77 -136 1 -10 -3 -17 -9 -17
-5 0 -7 -3 -4 -6 3 -4 2 -15 -4 -26 -6 -11 -11 -34 -11 -51 0 -18 -3 -36 -7
-42 -3 -5 -6 -18 -7 -27 -1 -10 -2 -19 -4 -20 -1 -2 -3 -16 -5 -33 -5 -45 -9
-59 -19 -67 -5 -3 -10 -21 -11 -40 -1 -18 -5 -41 -9 -50 -4 -9 -9 -22 -10 -30
-2 -7 -5 -20 -8 -28 -3 -8 -11 -33 -18 -55 -17 -55 -69 -158 -83 -167 -47 -31
-118 -37 -477 -40 -248 -2 -256 -2 -303 21 -26 12 -45 27 -41 32 3 5 1 9 -3 9
-5 0 -17 17 -26 38 -9 20 -26 60 -38 87 -12 28 -21 54 -20 58 1 5 -12 24 -29
43 -16 19 -30 38 -30 42 0 13 -100 63 -112 56 -6 -4 -8 -3 -5 3 4 6 0 13 -8
17 -8 3 -15 0 -15 -7 0 -8 -3 -8 -9 1 -5 8 -26 15 -47 17 -22 2 -41 4 -44 5
-3 1 -38 1 -77 1 -40 1 -73 5 -73 10 0 6 -4 7 -10 4 -17 -11 -50 -14 -50 -5 0
4 -11 7 -25 6 -14 0 -25 -3 -25 -6 0 -3 -21 -5 -47 -4 -27 1 -51 -3 -55 -10
-6 -8 -8 -8 -8 2 0 6 -5 12 -11 12 -5 0 -7 -4 -4 -10 4 -7 -3 -7 -20 0 -14 5
-24 6 -21 1 3 -5 -5 -11 -19 -13 -14 -3 -25 -2 -25 3 0 4 -12 4 -27 0 -16 -5
-36 -7 -45 -5 -10 1 -18 -2 -18 -7 0 -6 -5 -7 -11 -3 -24 14 -166 -41 -175
-69 -3 -10 -8 -16 -11 -14 -8 8 -44 -26 -54 -51 -5 -14 -14 -20 -21 -16 -7 4
-8 3 -4 -4 4 -7 2 -12 -3 -12 -6 0 -11 -6 -11 -14 0 -7 -7 -27 -15 -42 -8 -16
-15 -37 -15 -47 0 -10 -4 -16 -8 -13 -4 2 -8 -3 -9 -12 -1 -9 -5 -39 -9 -67
-4 -27 -8 -62 -8 -77 0 -16 -3 -28 -6 -28 -3 0 -6 -19 -6 -42 -2 -75 -23 -196
-40 -229 -7 -15 -15 -38 -18 -52 -2 -14 -9 -35 -16 -46 -6 -12 -9 -21 -6 -21
2 0 -12 -44 -31 -97 -19 -54 -41 -118 -49 -143 -8 -25 -19 -54 -24 -65 -17
-36 -50 -150 -50 -173 0 -13 -4 -31 -9 -40 -5 -9 -10 -35 -12 -57 -1 -22 -8
-46 -13 -54 -6 -8 -9 -17 -8 -20 7 -12 -10 -151 -19 -157 -5 -3 -7 -9 -4 -14
11 -17 -66 -27 -262 -33 -101 -3 -113 12 -114 153 0 24 -6 48 -12 52 -9 6 -9
8 1 8 9 0 11 7 7 21 -4 11 -8 37 -10 57 -9 100 -16 166 -20 172 -3 6 -15 96
-20 155 -2 17 -4 30 -5 30 -2 0 -7 27 -15 95 -7 56 -9 67 -20 104 -4 16 -9 36
-10 45 -1 9 -7 29 -13 45 -7 15 -13 39 -14 52 -1 13 -5 24 -9 24 -4 0 -10 10
-14 23 -4 12 -8 24 -9 27 -1 3 -6 16 -10 30 -5 14 -15 33 -24 43 -9 10 -17 24
-18 32 -3 21 -75 145 -99 171 -12 13 -25 21 -28 18 -3 -3 -8 3 -11 13 -4 10
-18 27 -33 37 -14 11 -23 14 -18 7 4 -7 -5 -5 -21 5 -24 16 -49 19 -169 19
-77 1 -144 -1 -149 -3 -5 -3 -29 -6 -55 -8 -25 -1 -75 -6 -111 -9 -36 -4 -80
-9 -99 -11 -19 -2 -50 -6 -70 -10 -20 -3 -45 -7 -56 -9 -11 -1 -20 -3 -20 -4
0 -3 -34 -10 -72 -14 -18 -2 -44 -12 -58 -21 -15 -10 -29 -15 -31 -13 -3 3
-35 -24 -71 -60 -80 -78 -82 -79 -168 -92 -39 -5 -82 -12 -96 -15 -64 -14
-459 -24 -452 -12 4 5 0 6 -7 1 -8 -5 -42 -9 -76 -9 -34 -1 -65 -4 -69 -8 -4
-4 -17 -3 -29 2 -13 4 -29 4 -39 -1 -9 -6 -17 -6 -17 -2 0 4 -19 9 -43 9 -66
3 -142 16 -145 25 -2 5 -12 5 -21 -1 -10 -5 -21 -6 -25 -3 -4 4 -123 8 -266 9
-142 1 -263 5 -268 8 -6 4 -13 2 -17 -4 -3 -6 -17 -8 -31 -6 -14 3 -22 1 -19
-5 4 -5 -4 -7 -17 -6 -28 5 -114 -17 -134 -33 -8 -7 -14 -9 -14 -5 0 4 -6 2
-13 -4 -8 -6 -17 -8 -20 -4 -4 3 -7 1 -7 -6 0 -7 -4 -10 -8 -7 -5 3 -15 -3
-23 -12 -8 -9 -28 -26 -44 -37 -38 -26 -195 -181 -195 -192 0 -5 -8 -18 -17
-29 -35 -39 -71 -107 -79 -147 -2 -11 -10 -30 -19 -43 -8 -13 -15 -30 -15 -39
0 -8 -5 -15 -10 -15 -6 0 -10 -6 -9 -12 3 -17 -10 -69 -23 -92 -5 -10 -12 -30
-14 -45 -2 -14 -7 -37 -11 -51 -3 -14 -5 -29 -4 -34 1 -4 -2 -13 -8 -20 -5 -6
-17 -67 -26 -136 -10 -69 -22 -134 -28 -145 -6 -11 -12 -40 -13 -65 -1 -25 -2
-45 -4 -45 -4 0 -16 -75 -25 -160 -11 -98 -13 -109 -20 -127 -8 -19 -35 -32
-35 -16 0 7 -5 6 -15 -2 -12 -10 -15 -10 -15 1 0 10 -2 11 -8 2 -16 -26 -76 4
-90 46 -6 16 -8 32 -5 35 3 3 0 12 -7 21 -7 8 -9 15 -5 15 4 0 3 6 -2 13 -8
11 -11 24 -15 75 -1 6 -5 12 -9 12 -5 0 -6 7 -3 15 4 8 1 15 -6 15 -6 0 -8 5
-5 10 3 6 2 10 -2 10 -8 0 -13 28 -16 78 0 6 -5 12 -10 12 -6 0 -8 3 -5 6 4 3
0 17 -7 31 -8 15 -12 30 -9 35 3 5 0 15 -6 23 -7 8 -9 15 -5 15 4 0 2 7 -5 15
-7 8 -10 21 -7 29 3 8 2 16 -4 18 -5 2 -11 12 -13 23 -2 11 -9 33 -15 48 -6
16 -9 32 -6 37 2 4 -4 18 -15 30 -11 13 -20 32 -20 43 0 11 -8 29 -18 40 -12
15 -13 18 -2 12 9 -5 7 1 -5 14 -11 13 -19 24 -17 25 6 2 -19 61 -32 76 -8 8
-19 32 -27 53 -7 20 -17 37 -23 37 -5 0 -6 3 -3 6 4 4 -2 19 -13 34 -11 16
-20 36 -20 45 0 9 -4 13 -10 10 -5 -3 -12 6 -16 20 -3 14 -10 25 -15 25 -5 0
-9 6 -9 14 0 8 -11 23 -25 34 -13 11 -22 22 -19 25 3 3 -3 8 -14 11 -11 4 -23
14 -26 22 -3 8 -10 13 -14 10 -5 -3 -23 8 -40 24 -18 16 -32 24 -32 17 0 -7
-4 -6 -10 3 -6 10 -10 -941 -10 -2692 0 -1679 4 -2709 9 -2713 6 -3 61 19 123
49 62 30 138 61 169 70 57 16 205 108 241 150 10 11 26 38 36 59 9 20 20 37
24 37 4 0 5 7 2 15 -4 8 -1 15 5 15 6 0 11 9 11 21 0 12 4 17 11 14 6 -4 9 -1
8 6 -5 22 10 69 21 69 6 0 10 9 10 19 0 11 5 32 12 48 6 15 10 34 9 42 -1 7 2
10 7 7 8 -5 19 39 24 92 1 6 4 12 8 12 4 0 7 6 7 13 0 6 6 39 13 72 8 33 15
67 17 75 4 17 15 117 16 140 0 8 4 18 10 21 8 6 15 40 19 97 2 19 12 14 25
-13 8 -19 8 -23 0 -18 -7 4 -6 -1 2 -10 7 -9 10 -17 6 -17 -4 0 -3 -6 2 -12 6
-7 14 -26 18 -43 5 -16 10 -37 12 -45 3 -8 4 -27 4 -42 -1 -16 4 -28 11 -28 9
0 8 -3 -2 -10 -8 -5 -10 -10 -5 -10 6 0 12 -17 13 -37 3 -60 13 -97 29 -108 8
-6 15 -22 17 -37 1 -15 8 -34 15 -42 8 -9 11 -25 8 -36 -3 -11 -1 -18 3 -15
11 7 32 -30 23 -39 -3 -3 -1 -6 5 -6 6 0 13 -13 17 -29 3 -16 13 -35 21 -41 7
-7 12 -16 9 -20 -3 -5 0 -15 7 -22 19 -21 38 -56 38 -71 0 -7 9 -23 20 -35 12
-12 17 -22 13 -22 -4 0 0 -5 9 -11 10 -5 18 -15 18 -20 0 -13 56 -85 90 -116
14 -12 40 -28 58 -35 17 -7 32 -15 32 -19 0 -3 20 -12 45 -19 25 -7 45 -17 45
-23 0 -6 3 -7 6 -4 4 3 15 2 25 -4 30 -16 105 -21 254 -19 77 2 175 3 217 4
43 1 78 4 78 8 0 3 53 9 117 13 65 4 125 11 134 16 9 4 33 9 53 11 20 1 36 6
36 10 0 4 3 7 8 6 4 -1 28 2 55 6 26 5 71 10 100 11 28 1 52 4 52 5 0 6 164
17 400 26 282 12 335 10 343 -14 2 -7 8 -9 14 -6 6 4 13 2 17 -4 3 -5 20 -12
36 -15 17 -2 50 -14 75 -26 68 -31 119 -37 450 -46 211 -6 251 -6 300 0 19 2
57 6 84 9 36 4 60 15 92 41 41 34 84 85 84 100 0 4 9 20 21 36 11 16 17 29 12
29 -4 0 -3 4 2 8 17 11 57 72 48 72 -4 0 -2 4 6 9 8 5 16 18 17 28 2 9 8 19
13 21 6 2 11 8 11 13 0 5 12 28 27 52 15 23 26 45 25 50 -1 4 2 7 8 7 5 0 18
21 29 46 11 25 25 43 31 39 5 -3 10 3 10 14 0 12 5 21 10 21 6 0 10 6 10 13 0
7 11 29 25 48 13 20 21 39 18 43 -3 3 0 13 7 21 16 19 55 109 77 180 22 68 24
76 24 108 0 15 6 27 12 27 7 0 6 4 -3 10 -8 5 -10 10 -4 10 7 0 15 28 19 68 4
37 9 78 11 92 2 14 6 48 9 75 4 33 13 55 26 64 10 7 19 21 19 30 1 9 8 -2 16
-24 14 -38 28 -199 39 -460 2 -66 7 -136 10 -155 8 -53 17 -152 16 -180 0 -22
5 -59 34 -222 3 -16 7 -41 9 -58 5 -34 28 -90 37 -90 4 0 14 -17 24 -37 50
-114 99 -158 220 -197 50 -16 97 -30 105 -32 8 -1 35 -6 60 -12 42 -10 99 -15
355 -28 265 -13 265 -13 362 9 54 13 133 71 190 140 25 28 58 67 74 85 16 18
29 35 29 38 0 12 59 64 73 64 9 0 17 4 19 10 2 8 127 13 243 9 17 -1 32 0 35
1 54 20 308 16 330 -6 6 -6 12 -35 14 -64 14 -171 83 -335 149 -356 12 -4 49
-19 82 -34 160 -72 240 -89 500 -106 28 -1 100 -8 160 -15 61 -6 137 -13 170
-15 187 -11 231 -17 243 -28 2 -3 13 -1 23 5 11 6 19 6 19 0 0 -5 35 -9 78 -8
84 0 363 -16 437 -27 157 -21 208 -26 325 -30 428 -18 1132 -24 1890 -17 230
2 300 -2 300 -18 1 -20 46 -54 82 -63 38 -8 43 -7 63 17 12 14 32 25 44 25 12
0 21 6 21 15 0 8 8 15 18 15 10 0 27 6 38 14 21 16 62 12 104 -9 46 -23 168
-35 343 -34 208 0 207 0 207 10 0 11 521 9 542 -2 9 -5 19 -5 22 -1 6 10 124
7 150 -3 14 -6 17 -5 12 3 -4 7 -1 12 8 12 9 0 16 -6 16 -12 0 -9 3 -9 9 1 6
9 16 11 27 6 11 -4 78 -8 150 -10 72 -1 138 -6 145 -11 8 -5 212 -9 454 -10
242 0 607 -1 810 -2 353 -1 800 4 1025 12 58 3 224 7 370 11 348 8 479 19 565
45 147 46 219 150 230 335 3 44 8 95 11 114 3 19 8 53 10 75 10 94 28 212 34
219 3 3 10 39 12 64 2 15 11 23 33 27 16 3 287 8 600 11 550 6 611 8 665 20
26 5 84 6 480 6 135 0 349 2 475 4 127 3 401 8 610 11 459 6 574 10 599 20 11
4 27 2 39 -5 14 -9 22 -10 30 -2 14 14 40 15 32 1 -4 -6 1 -7 11 -3 23 9 63 8
92 -1 14 -5 29 -3 39 6 12 9 15 9 9 1 -4 -8 -1 -13 8 -13 9 0 16 6 16 13 0 8
3 8 8 2 8 -12 107 -11 467 3 147 6 227 5 240 -2 19 -10 434 -10 615 -1 41 2
417 6 835 9 830 6 1647 16 1656 21 3 2 106 6 230 9 343 9 374 13 502 58 62 22
120 42 130 45 9 3 17 9 17 14 0 5 6 9 14 9 7 0 21 10 29 23 32 46 66 79 79 75
14 -5 17 -3 74 67 48 58 98 160 114 228 22 101 28 518 19 1327 l-3 275 58 75
c32 41 85 104 119 139 33 35 71 86 84 114 22 46 24 61 24 215 0 92 -3 255 -8
362 -9 228 -9 554 0 589 4 14 11 29 16 34 7 7 7 16 1 28 -7 12 -6 31 3 56 l12
38 80 2 c113 2 314 38 345 61 58 44 61 58 66 349 7 396 14 707 15 718 0 6 1
89 1 185 -1 188 -1 188 -1 270 -1 30 -1 64 -1 75 3 216 0 251 -35 395 -16 64
-56 161 -80 190 -35 43 -71 127 -69 160 9 132 8 137 -49 165 -28 14 -34 13
-82 -9 -50 -23 -99 -26 -165 -11 -14 3 -47 7 -75 10 -106 9 -222 18 -265 20
-25 2 -47 3 -50 4 -5 2 -140 6 -580 16 -524 12 -709 21 -772 39 -29 8 -98 18
-153 21 -55 3 -107 8 -115 10 -8 2 -28 7 -45 10 -40 8 -60 13 -60 15 0 1 -13
4 -29 6 -16 2 -36 6 -45 10 -9 4 -26 8 -38 10 -13 2 -33 6 -45 8 -13 2 -30 6
-38 9 -8 3 -28 8 -45 10 -39 7 -84 16 -115 24 -27 7 -66 13 -90 14 -8 0 -22 3
-30 6 -8 3 -24 7 -35 9 -49 7 -91 15 -105 21 -21 8 -38 12 -95 18 -27 3 -78
12 -113 19 -34 7 -76 12 -91 12 -16 -1 -27 2 -24 7 2 4 -8 8 -24 8 -42 2 -103
12 -165 28 -21 5 -38 7 -38 5 0 -3 -8 0 -17 5 -19 10 -108 24 -160 25 -17 0
-30 3 -27 7 2 3 -12 9 -31 12 -41 7 -93 -9 -115 -34 -14 -15 -44 -23 -76 -20
-9 1 -70 54 -139 121 -12 11 -26 20 -32 20 -7 0 -17 9 -23 19 -5 11 -24 28
-40 38 -17 9 -30 23 -30 29 0 7 -9 16 -20 19 -11 3 -20 11 -20 16 0 5 -5 9
-10 9 -6 0 -26 16 -44 35 -19 19 -38 35 -42 35 -4 0 -16 8 -26 17 -18 16 -18
16 -12 0 3 -10 1 -17 -5 -17 -6 0 -7 -8 -4 -17 7 -17 5 -17 -17 -2 -24 15 -44
49 -21 35 6 -4 11 0 11 9 0 9 5 13 10 10 6 -3 10 0 10 8 0 7 -23 24 -50 37
-28 13 -69 42 -93 65 -23 23 -52 45 -65 49 -12 4 -22 12 -22 17 0 5 -9 9 -20
9 -11 0 -20 -7 -20 -15 0 -8 -5 -15 -11 -15 -6 0 -9 -7 -5 -15 4 -11 -2 -15
-25 -15 -33 0 -58 18 -51 38 2 6 -2 12 -9 12 -7 0 -10 3 -6 6 9 10 -19 34 -40
34 -10 0 -27 7 -37 15 -11 8 -30 15 -43 15 -13 0 -50 11 -83 24 -33 14 -85 27
-117 31 -31 3 -70 8 -87 10 -17 2 -74 9 -126 15 -52 6 -117 17 -145 25 -27 8
-102 17 -165 20 -63 3 -128 8 -145 10 -16 3 -57 8 -90 10 -33 3 -94 10 -135
15 -41 5 -104 12 -140 16 -36 3 -74 8 -85 9 -41 6 -222 24 -290 30 -71 5 -110
11 -155 21 -14 3 -60 7 -103 9 -42 2 -82 7 -89 11 -6 4 -8 3 -5 -3 4 -6 -3
-13 -14 -16 -15 -4 -19 -2 -15 9 3 9 1 12 -4 9 -6 -3 -10 0 -10 7 0 10 -2 10
-9 -1 -5 -8 -7 -21 -3 -29 3 -10 1 -13 -6 -8 -8 4 -10 2 -6 -8 4 -12 -2 -13
-38 -9 -24 3 -49 10 -55 16 -9 6 -13 5 -13 -4 0 -11 -2 -11 -10 1 -7 12 -16
12 -50 3 -34 -9 -43 -8 -47 3 -3 8 -9 12 -13 9 -10 -6 -40 5 -40 15 0 4 16 7
35 5 20 -1 38 1 40 6 3 4 21 6 39 3 19 -2 45 1 58 6 19 8 17 9 -12 4 -29 -6
-33 -4 -23 8 10 11 8 14 -8 14 -10 0 -19 -4 -19 -8 0 -4 -5 -8 -11 -8 -5 0 -8
4 -5 9 3 4 -8 7 -24 5 -17 -2 -30 1 -30 7 0 6 -4 7 -10 4 -5 -3 -10 -2 -10 3
0 5 -6 9 -12 9 -11 1 -93 18 -248 53 -19 4 -96 20 -170 34 -74 15 -180 40
-235 55 -104 30 -383 89 -495 105 -44 7 -120 22 -200 40 -14 3 -42 8 -64 11
-21 3 -41 7 -45 9 -3 3 -25 7 -47 10 -51 8 -60 10 -174 41 -52 14 -117 32
-145 39 -61 17 -210 61 -285 85 -30 10 -82 26 -115 36 -33 10 -67 20 -75 23
-8 3 -20 6 -25 7 -26 6 -132 38 -150 46 -11 5 -69 23 -130 40 -60 17 -115 35
-120 40 -6 4 -31 13 -55 19 -65 16 -66 16 -170 50 -52 18 -126 40 -165 50 -38
11 -104 28 -145 40 -84 23 -89 24 -145 35 -57 10 -90 42 -101 98 -2 12 -17 49
-33 82 -16 33 -42 87 -56 120 -15 33 -34 74 -43 90 -23 46 -134 218 -154 239
-10 10 -15 23 -12 28 3 4 -2 8 -10 8 -9 0 -16 3 -16 8 0 4 -18 25 -40 47 -21
22 -39 46 -40 53 0 6 -3 12 -7 12 -5 0 -52 42 -105 93 -106 101 -128 120 -128
113 0 -3 -16 10 -35 29 -19 19 -38 35 -44 35 -5 0 -16 11 -25 25 -9 14 -20 24
-25 21 -7 -5 -20 5 -112 86 -40 35 -179 98 -179 81 0 -3 -6 0 -14 6 -8 6 -18
11 -22 9 -11 -2 -75 12 -89 20 -5 4 -21 7 -35 8 -14 1 -25 2 -25 3 0 3 -33 10
-69 14 -16 2 -33 11 -38 21 -5 9 -16 16 -24 16 -8 0 -29 7 -45 16 -17 8 -41
17 -52 20 -12 2 -30 14 -41 26 -10 13 -22 23 -26 23 -5 0 -12 3 -16 8 -11 11
-49 8 -62 -5 -7 -7 -12 -8 -12 -2 0 5 -4 3 -9 -5 -8 -12 -25 -14 -76 -9 -8 1
-15 8 -15 17 0 11 -3 12 -11 4 -9 -9 -19 -8 -41 3 -15 8 -50 16 -76 18 -26 1
-56 6 -66 11 -15 7 -17 5 -11 -6 7 -11 6 -12 -7 -2 -8 7 -18 10 -21 6 -4 -3
-7 -2 -7 3 0 5 -39 10 -88 12 -75 2 -112 5 -132 12 -13 5 -90 1 -99 -4 -5 -4
-12 -2 -16 3 -3 5 -26 9 -50 8 -25 -1 -45 0 -45 3 0 5 -179 7 -184 2z m2946
-2746 c133 -44 343 -109 360 -113 9 -1 68 -19 130 -39 178 -56 289 -90 341
-104 26 -7 47 -15 47 -19 0 -3 10 -7 23 -8 12 0 36 -7 52 -14 35 -14 30 -13
75 -23 19 -5 80 -23 135 -41 55 -18 150 -48 210 -66 61 -18 115 -36 120 -40 6
-3 34 -12 63 -19 28 -6 52 -16 52 -22 0 -5 4 -6 10 -3 5 3 42 -5 82 -19 40
-13 143 -45 228 -71 178 -54 398 -124 420 -132 8 -4 18 -5 23 -5 4 1 7 -2 7
-8 0 -5 7 -7 15 -4 8 4 15 1 15 -6 0 -6 4 -9 8 -6 9 5 72 -8 107 -23 23 -10
133 -44 153 -47 8 -1 21 -6 30 -10 9 -4 22 -8 27 -8 26 -3 55 -18 50 -27 -3
-5 1 -6 9 -3 13 5 122 -24 231 -61 22 -7 95 -30 163 -51 67 -21 122 -42 122
-46 0 -5 5 -6 10 -3 9 5 79 -14 255 -70 22 -7 63 -16 90 -19 28 -3 64 -8 80
-12 17 -3 38 -6 48 -7 9 -1 17 -4 17 -7 0 -4 8 -6 18 -6 31 2 192 -26 192 -33
0 -3 10 -6 23 -7 12 0 38 -4 57 -8 19 -4 43 -7 53 -7 21 0 23 -15 2 -23 -8 -3
-15 -2 -15 2 0 4 -19 6 -42 5 -24 -1 -43 -2 -43 -3 0 -1 -10 -3 -23 -6 -13 -2
-21 -1 -19 3 3 5 -5 8 -18 8 -13 0 -21 -3 -19 -7 3 -4 -27 -5 -66 -4 -50 3
-68 0 -63 -8 5 -8 3 -8 -8 0 -15 12 -99 11 -118 0 -6 -4 -11 -3 -11 3 0 7 -8
7 -25 1 -16 -6 -25 -6 -25 0 0 12 -22 9 -32 -5 -5 -6 -8 -6 -8 2 0 11 -24 12
-36 1 -3 -4 -11 -5 -17 -3 -28 10 -126 12 -120 2 4 -6 1 -7 -7 -2 -15 10 -499
15 -515 6 -16 -9 -35 -10 -30 -2 5 10 -302 7 -311 -2 -4 -4 -12 -3 -18 1 -17
11 -136 8 -136 -3 0 -5 -4 -4 -9 4 -8 12 -12 12 -25 2 -9 -8 -16 -9 -16 -4 0
11 -130 11 -147 0 -7 -5 -13 -4 -13 1 0 12 -83 9 -92 -3 -5 -7 -8 -6 -8 1 0
12 -28 12 -47 1 -6 -4 -14 -3 -18 2 -4 7 -15 7 -30 1 -14 -5 -25 -6 -25 -2 0
4 -45 7 -99 7 -55 0 -97 -3 -94 -7 2 -5 -6 -4 -19 0 -19 6 -151 8 -168 2 -16
-6 -180 -4 -202 2 -16 3 -28 4 -28 0 0 -12 -584 -9 -592 3 -5 7 -8 7 -8 0 0
-10 -262 -17 -573 -15 -109 1 -155 12 -174 43 -4 8 -16 16 -25 20 -10 3 -18
14 -18 22 0 9 -4 14 -9 11 -5 -4 -28 15 -50 40 l-41 47 -1 91 c-1 50 -3 114
-5 141 -8 117 -17 379 -14 400 2 6 2 14 0 20 -3 18 -11 230 -11 285 1 30 1 79
1 108 0 51 0 52 30 52 16 0 62 -11 102 -24z m9743 -5839 c-10 -145 -17 -193
-26 -172 -9 23 -4 229 6 245 16 26 25 -7 20 -73z"/>
<path d="M16233 16965 c0 -8 4 -12 9 -9 5 3 6 10 3 15 -9 13 -12 11 -12 -6z"/>
<path d="M17035 16331 c-3 -5 -2 -12 3 -15 5 -3 9 1 9 9 0 17 -3 19 -12 6z"/>
<path d="M19385 17590 c-4 -6 -11 -8 -16 -5 -5 4 -6 -2 -2 -11 4 -10 8 -13 10
-7 3 7 10 10 18 7 7 -3 16 -1 20 5 4 7 0 8 -11 4 -12 -4 -15 -3 -10 5 4 7 5
12 2 12 -3 0 -8 -5 -11 -10z"/>
</g>
</svg>
