<svg version="1.1" xmlns="http://www.w3.org/2000/svg" viewBox="0 0 1125 620" width="2250" height="1240">
  <!-- svg-source:excalidraw -->
  
  <defs>
    <style class="style-fonts">
      @font-face {
        font-family: "Virgil";
        src: url("https://excalidraw.com/Virgil.woff2");
      }
      @font-face {
        font-family: "Cascadia";
        src: url("https://excalidraw.com/Cascadia.woff2");
      }
    </style>
    
  </defs>
  <rect x="0" y="0" width="1125" height="620" fill="#ffffff"></rect><g stroke-linecap="round" transform="translate(10 63) rotate(0 165 38.5)"><path d="M19.25 0 M19.25 0 C119.59 3.93, 217.23 1.15, 310.75 0 M19.25 0 C92.66 -4.75, 166.72 -4.35, 310.75 0 M310.75 0 C321.97 -1.86, 328.02 5.52, 330 19.25 M310.75 0 C320.54 -3.44, 326.02 1.93, 330 19.25 M330 19.25 C331.69 29.71, 328.29 44.31, 330 57.75 M330 19.25 C331.09 31.7, 331.99 41.84, 330 57.75 M330 57.75 C331.69 74.16, 320.32 80.17, 310.75 77 M330 57.75 C330.96 70.48, 322.36 76.88, 310.75 77 M310.75 77 C246.87 75.8, 183.09 79.39, 19.25 77 M310.75 77 C242.11 81.03, 174.4 81.92, 19.25 77 M19.25 77 C3.01 73.16, -0.74 67.52, 0 57.75 M19.25 77 C5 72.61, -1.42 68.26, 0 57.75 M0 57.75 C4.66 41.99, -1.3 29.46, 0 19.25 M0 57.75 C-2.42 50.05, -1.02 41.05, 0 19.25 M0 19.25 C1.08 8.64, 3.98 1.95, 19.25 0 M0 19.25 C-2.59 10.96, 3.93 2.81, 19.25 0" stroke="#000000" stroke-width="2" fill="none"></path></g><g transform="translate(73 89.5) rotate(0 102 12)"><text x="102" y="0" font-family="Cascadia, Segoe UI Emoji" font-size="20px" fill="#000000" text-anchor="middle" style="white-space: pre;" direction="ltr" dominant-baseline="text-before-edge">External CISCO SW</text></g><g stroke-linecap="round" transform="translate(498.0000000000001 57) rotate(0 145 37.5)"><path d="M18.75 0 M18.75 0 C122.26 -6.15, 217.48 -6.69, 271.25 0 M18.75 0 C84.85 -1.77, 148.04 -1.52, 271.25 0 M271.25 0 C282.57 -2.69, 290 3.22, 290 18.75 M271.25 0 C287.22 4.26, 286.26 1.91, 290 18.75 M290 18.75 C289.68 31.34, 287.72 39.38, 290 56.25 M290 18.75 C288.17 30.59, 288.49 45.15, 290 56.25 M290 56.25 C290.18 66.53, 286.23 73.75, 271.25 75 M290 56.25 C288.11 68.94, 284.97 71.19, 271.25 75 M271.25 75 C190.88 72.59, 111.71 71.44, 18.75 75 M271.25 75 C178.09 76.22, 87.61 76.57, 18.75 75 M18.75 75 C5.82 74.84, -1.95 71.26, 0 56.25 M18.75 75 C4.51 79.38, 2.98 64.42, 0 56.25 M0 56.25 C3.28 44.53, -3.66 39.48, 0 18.75 M0 56.25 C0.06 47.37, -1.63 35.09, 0 18.75 M0 18.75 C1.51 8.3, 3.2 2.92, 18.75 0 M0 18.75 C-3.79 8.6, 5.23 -0.45, 18.75 0" stroke="#000000" stroke-width="2" fill="none"></path></g><g transform="translate(589.0000000000001 70.5) rotate(0 54 24)"><text x="54" y="0" font-family="Cascadia, Segoe UI Emoji" font-size="20px" fill="#000000" text-anchor="middle" style="white-space: pre;" direction="ltr" dominant-baseline="text-before-edge">Edge-core</text><text x="54" y="24" font-family="Cascadia, Segoe UI Emoji" font-size="20px" fill="#000000" text-anchor="middle" style="white-space: pre;" direction="ltr" dominant-baseline="text-before-edge"></text></g><g stroke-linecap="round" transform="translate(500 374) rotate(0 149 49)"><path d="M24.5 0 M24.5 0 C117.17 -1.45, 205.08 1.99, 273.5 0 M24.5 0 C96.68 -0.45, 169.42 -0.78, 273.5 0 M273.5 0 C288.75 0.14, 298.41 4.77, 298 24.5 M273.5 0 C285.94 1.49, 297.54 5.3, 298 24.5 M298 24.5 C300.21 39.09, 295.33 51.26, 298 73.5 M298 24.5 C296.37 43.81, 298.58 62.03, 298 73.5 M298 73.5 C299.51 87.61, 291.84 101.39, 273.5 98 M298 73.5 C297.84 86.51, 287.51 95.82, 273.5 98 M273.5 98 C209.73 96.91, 153.37 91.34, 24.5 98 M273.5 98 C204.69 98.74, 136.53 97.66, 24.5 98 M24.5 98 C9.48 96.99, -2.55 88.68, 0 73.5 M24.5 98 C5.93 95.51, -1.48 88.79, 0 73.5 M0 73.5 C-3.03 56.39, -4.01 36.13, 0 24.5 M0 73.5 C-0.57 59.14, -1.24 45.39, 0 24.5 M0 24.5 C3.12 8.45, 11.71 0.73, 24.5 0 M0 24.5 C-3.93 12.53, 8.65 -3.73, 24.5 0" stroke="#000000" stroke-width="2" fill="none"></path></g><g transform="translate(595 411) rotate(0 54 12)"><text x="54" y="0" font-family="Cascadia, Segoe UI Emoji" font-size="20px" fill="#000000" text-anchor="middle" style="white-space: pre;" direction="ltr" dominant-baseline="text-before-edge">SN3700C-1</text></g><g stroke-linecap="round" transform="translate(274.5 218.5) rotate(0 159.5 48)"><path d="M24 0 M24 0 C106.44 -1.75, 186.74 -2.8, 295 0 M24 0 C122.21 -0.02, 216.33 1.18, 295 0 M295 0 C311.42 -3.25, 318.07 7.08, 319 24 M295 0 C314.75 -0.45, 322.85 9.85, 319 24 M319 24 C321.26 38.75, 316.94 48.47, 319 72 M319 24 C319.54 41.89, 316.88 62.21, 319 72 M319 72 C319.51 89.64, 310.46 92.42, 295 96 M319 72 C314.43 88.69, 308.57 99.27, 295 96 M295 96 C195.65 96.92, 96.73 102.15, 24 96 M295 96 C189.5 95.12, 80.97 95.76, 24 96 M24 96 C10.81 96.97, 3.84 84.41, 0 72 M24 96 C10.9 96.11, 1.95 85.9, 0 72 M0 72 C-2.47 56.78, 0.6 35, 0 24 M0 72 C1.68 55.39, -1.45 42.77, 0 24 M0 24 C-2.85 4.96, 4.55 0, 24 0 M0 24 C2.5 6.99, 10.25 2.38, 24 0" stroke="#000000" stroke-width="2" fill="none"></path></g><g transform="translate(380 254.5) rotate(0 54 12)"><text x="54" y="0" font-family="Cascadia, Segoe UI Emoji" font-size="20px" fill="#000000" text-anchor="middle" style="white-space: pre;" direction="ltr" dominant-baseline="text-before-edge">SN3700C-0</text></g><g stroke-linecap="round" transform="translate(887 10) rotate(0 114.00000000000006 300)"><path d="M32 0 M32 0 C86.54 -1.15, 140.97 4.28, 196 0 M32 0 C68.08 1.58, 102.93 1.96, 196 0 M196 0 C218.45 1.98, 229.81 11.73, 228 32 M196 0 C217.36 -2.63, 223.89 7.28, 228 32 M228 32 C232.07 231.9, 233.53 430.44, 228 568 M228 32 C227.07 194.6, 226.74 356.66, 228 568 M228 568 C231.89 587.58, 221.32 598.67, 196 600 M228 568 C231.97 587.03, 217.54 602.77, 196 600 M196 600 C134.56 601.87, 64.89 603.47, 32 600 M196 600 C146.17 598.32, 97.37 596.65, 32 600 M32 600 C12.26 596.07, 3.36 589.04, 0 568 M32 600 C11.33 600.89, -4 589.8, 0 568 M0 568 C2.84 376.1, 2.93 182.63, 0 32 M0 568 C4.41 384.33, 4.72 202.46, 0 32 M0 32 C3.31 13.67, 7.26 -0.04, 32 0 M0 32 C-3.41 9.16, 12.28 1.32, 32 0" stroke="#000000" stroke-width="2" fill="none"></path></g><g transform="translate(959 298) rotate(0 42 12)"><text x="42" y="0" font-family="Cascadia, Segoe UI Emoji" font-size="20px" fill="#000000" text-anchor="middle" style="white-space: pre;" direction="ltr" dominant-baseline="text-before-edge">SERVERS</text></g><g stroke-linecap="round"><g transform="translate(341 91) rotate(0 76.83987227269449 0.7438634578911092)"><path d="M-0.94 0.81 C24.6 1.18, 126.66 1.71, 152.28 1.66 M0.77 0.19 C26.79 0.27, 129.43 -0.35, 154.62 -0.12" stroke="#e03131" stroke-width="2" fill="none"></path></g></g><mask></mask><g stroke-linecap="round"><g transform="translate(544 135) rotate(0 -0.5299263899680113 40.807186878826485)"><path d="M-0.23 -0.48 C0.02 13.06, 0.63 68.27, 0.75 81.91 M-1.81 -1.78 C-1.59 11.9, -0.11 69.38, 0.19 83.39" stroke="#e03131" stroke-width="2" fill="none"></path></g></g><mask></mask><g stroke-linecap="round"><g transform="translate(652 134) rotate(0 0.9837880245782458 121.1717344163917)"><path d="M0.12 1.15 C0.44 41.39, 0.88 200.3, 1.03 240.4 M-1.27 0.71 C-0.51 41.19, 2.45 201.77, 3.24 241.63" stroke="#e03131" stroke-width="2" fill="none"></path></g></g><mask></mask><g stroke-linecap="round"><g transform="translate(592 264) rotate(0 149.41911595113578 1.955864984169608)"><path d="M0.6 0.54 C50.65 0.86, 249.68 2.25, 299.39 2.74 M-0.55 -0.23 C49.45 0.2, 248.89 3.87, 298.64 4.14" stroke="#1971c2" stroke-width="2" fill="none"></path></g></g><mask></mask><g stroke-linecap="round"><g transform="translate(789 89) rotate(0 48.74223889105957 -0.2821541840676218)"><path d="M-0.02 0.09 C16.6 -0.16, 82.62 -0.85, 98.98 -1.04 M-1.49 -0.91 C15.03 -1, 81.01 0.28, 98.02 0.48" stroke="#1971c2" stroke-width="2" fill="none"></path></g></g><mask></mask><g stroke-linecap="round"><g transform="translate(798 422) rotate(0 45.95305985696609 0.32944300808011917)"><path d="M0.8 0.37 C16.11 0.44, 77.14 0.09, 92.15 0.08 M-0.25 -0.47 C14.9 -0.26, 75.72 0.84, 91.28 1.13" stroke="#1971c2" stroke-width="2" fill="none"></path></g></g><mask></mask><g stroke-linecap="round" transform="translate(22 185) rotate(0 114 142)"><path d="M32 0 M32 0 C95.82 0.35, 156.38 -1.11, 196 0 M32 0 C75.35 0.18, 118.35 0.09, 196 0 M196 0 C215.53 -1.2, 229.1 11.33, 228 32 M196 0 C215.35 -2.06, 229.3 8.95, 228 32 M228 32 C227.77 109.2, 227.33 185.55, 228 252 M228 32 C227.38 101.48, 228.33 172.86, 228 252 M228 252 C228.75 273.6, 215.98 283.11, 196 284 M228 252 C229.27 275.13, 217.42 285.71, 196 284 M196 284 C161.16 283.87, 126.69 282.62, 32 284 M196 284 C148.02 285.67, 101.26 285.5, 32 284 M32 284 C9.69 284.94, -1.27 272.49, 0 252 M32 284 C10.53 281.79, -0.11 273.84, 0 252 M0 252 C-1.66 189.4, -0.41 124.76, 0 32 M0 252 C1.54 206.36, 1.77 160.61, 0 32 M0 32 C1.41 11.21, 10.52 0.99, 32 0 M0 32 C-0.53 11.94, 8.71 0.67, 32 0" stroke="#1e1e1e" stroke-width="2" fill="none"></path></g><g transform="translate(114 223.5) rotate(0 22 103.5)"><text x="22" y="0" font-family="Helvetica, Segoe UI Emoji" font-size="20px" fill="#1e1e1e" text-anchor="middle" style="white-space: pre;" direction="ltr" dominant-baseline="text-before-edge">KEY:</text><text x="22" y="23" font-family="Helvetica, Segoe UI Emoji" font-size="20px" fill="#1e1e1e" text-anchor="middle" style="white-space: pre;" direction="ltr" dominant-baseline="text-before-edge"></text><text x="22" y="46" font-family="Helvetica, Segoe UI Emoji" font-size="20px" fill="#1e1e1e" text-anchor="middle" style="white-space: pre;" direction="ltr" dominant-baseline="text-before-edge"></text><text x="22" y="69" font-family="Helvetica, Segoe UI Emoji" font-size="20px" fill="#1e1e1e" text-anchor="middle" style="white-space: pre;" direction="ltr" dominant-baseline="text-before-edge"></text><text x="22" y="92" font-family="Helvetica, Segoe UI Emoji" font-size="20px" fill="#1e1e1e" text-anchor="middle" style="white-space: pre;" direction="ltr" dominant-baseline="text-before-edge"></text><text x="22" y="115" font-family="Helvetica, Segoe UI Emoji" font-size="20px" fill="#1e1e1e" text-anchor="middle" style="white-space: pre;" direction="ltr" dominant-baseline="text-before-edge"></text><text x="22" y="138" font-family="Helvetica, Segoe UI Emoji" font-size="20px" fill="#1e1e1e" text-anchor="middle" style="white-space: pre;" direction="ltr" dominant-baseline="text-before-edge"></text><text x="22" y="161" font-family="Helvetica, Segoe UI Emoji" font-size="20px" fill="#1e1e1e" text-anchor="middle" style="white-space: pre;" direction="ltr" dominant-baseline="text-before-edge"></text><text x="22" y="184" font-family="Helvetica, Segoe UI Emoji" font-size="20px" fill="#1e1e1e" text-anchor="middle" style="white-space: pre;" direction="ltr" dominant-baseline="text-before-edge"></text></g><g transform="translate(56.5 272) rotate(0 79.5 23)"><text x="79.5" y="0" font-family="Helvetica, Segoe UI Emoji" font-size="20px" fill="#e03131" text-anchor="middle" style="white-space: pre;" direction="ltr" dominant-baseline="text-before-edge">red - external vlan</text><text x="79.5" y="23" font-family="Helvetica, Segoe UI Emoji" font-size="20px" fill="#e03131" text-anchor="middle" style="white-space: pre;" direction="ltr" dominant-baseline="text-before-edge">(internet access)</text></g><g transform="translate(42 349) rotate(0 93 11.5)"><text x="93" y="0" font-family="Helvetica, Segoe UI Emoji" font-size="20px" fill="#1971c2" text-anchor="middle" style="white-space: pre;" direction="ltr" dominant-baseline="text-before-edge">blue - internal vlan(s)</text></g><g stroke-linecap="round"><g transform="translate(594.1601277273055 249.25613654210883) rotate(0 146.87701100834647 1.9005834578536565)"><path d="M0.24 0.92 C49.57 1.23, 245.82 1.74, 294.85 1.94 M-1.09 0.36 C48.17 0.86, 244.74 2.92, 293.82 3.44" stroke="#e03131" stroke-width="2" fill="none"></path></g></g><mask></mask><g stroke-linecap="round"><g transform="translate(800.1229889916534 413.09941654214634) rotate(0 45.157219026163204 0.33845945131568556)"><path d="M0.05 0.28 C15.53 0.32, 76.72 1.12, 91.69 1.32 M-1.38 -0.62 C14.1 -0.44, 75.51 -0.64, 91.11 -0.64" stroke="#e03131" stroke-width="2" fill="none"></path></g></g><mask></mask><g stroke-linecap="round"><g transform="translate(498 93) rotate(0 22.487117542698968 18.150903622433532)"><path d="M0.15 -1.16 C6.15 2.35, 27.34 15.54, 34.78 21.98 C42.23 28.42, 43.12 35.11, 44.82 37.46" stroke="#e03131" stroke-width="2.5" fill="none" stroke-dasharray="1.5 8"></path></g></g><mask></mask><g stroke-linecap="round"><g transform="translate(497 91) rotate(0 78.13390908651058 19.62551495023075)"><path d="M0.55 1.15 C12.54 3.51, 46.97 9.09, 72.84 15.25 C98.7 21.4, 142.06 34.11, 155.72 38.1" stroke="#e03131" stroke-width="2.5" fill="none" stroke-dasharray="1.5 8"></path></g></g><mask></mask><g stroke-linecap="round"><g transform="translate(663.2577611089404 134.28215418406774) rotate(0 1.637018748000287 119.04311082415282)"><path d="M0.05 -1.06 C0.71 38.46, 3.86 198.16, 4.65 238.09 M-1.38 0.99 C-0.98 40.57, 2.64 199.38, 3.52 239.15" stroke="#1971c2" stroke-width="2" fill="none"></path></g></g><mask></mask><g stroke-linecap="round"><g transform="translate(559.3629812519996 130.9568891758472) rotate(0 1.3746029499918109 43.406824909225094)"><path d="M0.73 -0.14 C1.12 14.21, 2.76 72.53, 3.09 87.04 M-0.35 -1.27 C-0.17 13.13, 1.83 73.25, 2.2 88.08" stroke="#1971c2" stroke-width="2" fill="none"></path></g></g><mask></mask><g stroke-linecap="round"><g transform="translate(784 88) rotate(0 -112.92337051443758 20.581897584721446)"><path d="M0.58 1.05 C-21.68 3.16, -94.58 6.64, -132.41 13.15 C-170.25 19.66, -210.86 35.46, -226.43 40.11" stroke="#1971c2" stroke-width="2.5" fill="none" stroke-dasharray="1.5 8"></path></g></g><mask></mask><g stroke-linecap="round"><g transform="translate(785 91) rotate(0 -61.20302300043403 20.17674604840579)"><path d="M-0.59 0.06 C-14.17 2.85, -62.46 10.56, -82.66 17.27 C-102.87 23.97, -115.1 36.68, -121.81 40.3" stroke="#1971c2" stroke-width="2.5" fill="none" stroke-dasharray="1.5 8"></path></g></g><mask></mask><g stroke-linecap="round"><g transform="translate(562 219) rotate(0 15.700268564745784 24.06388884373007)"><path d="M0.33 1.08 C5.7 8.92, 25.98 39.74, 31.07 47.04" stroke="#1971c2" stroke-width="2.5" fill="none" stroke-dasharray="1.5 8"></path></g></g><mask></mask><g stroke-linecap="round"><g transform="translate(666 372) rotate(0 66.85637379102411 25.41926652379334)"><path d="M1.11 0.96 C11.11 5.3, 38.36 18.73, 60.27 26.89 C82.19 35.04, 120.79 46.02, 132.6 49.88" stroke="#1971c2" stroke-width="2.5" fill="none" stroke-dasharray="1.5 8"></path></g></g><mask></mask><g stroke-linecap="round"><g transform="translate(544 220) rotate(0 24.919931284710742 16.23372931262452)"><path d="M0.36 -0.42 C2.19 4.71, 2.7 24.74, 10.88 30.08 C19.07 35.43, 43.26 31.48, 49.48 31.63" stroke="#e03131" stroke-width="2.5" fill="none" stroke-dasharray="1.5 8"></path></g></g><mask></mask><g stroke-linecap="round"><g transform="translate(654 373) rotate(0 72.55723155923187 20.624595681950453)"><path d="M0.57 0.66 C10.95 6.17, 37.58 26.65, 61.58 33.31 C85.57 39.96, 130.92 39.16, 144.54 40.59" stroke="#e03131" stroke-width="2.5" fill="none" stroke-dasharray="1.5 8"></path></g></g><mask></mask><g stroke-linecap="round"><g transform="translate(470 317) rotate(0 20.251649056002492 29.85158229656517)"><path d="M-0.47 -0.06 C6.32 9.93, 34.15 49.59, 40.97 59.76" stroke="#1e1e1e" stroke-width="2.5" fill="none" stroke-dasharray="8 10"></path></g></g><mask></mask><g stroke-linecap="round"><g transform="translate(494 315) rotate(0 19.09505771212281 28.730821879580617)"><path d="M-0.68 -0.02 C5.68 9.43, 32.53 47.64, 38.87 57.48" stroke="#1e1e1e" stroke-width="2.5" fill="none" stroke-dasharray="8 10"></path></g></g><mask></mask><g transform="translate(66 395) rotate(0 69 23)"><text x="69" y="0" font-family="Helvetica, Segoe UI Emoji" font-size="20px" fill="#1e1e1e" text-anchor="middle" style="white-space: pre;" direction="ltr" dominant-baseline="text-before-edge">black - stacking</text><text x="69" y="23" font-family="Helvetica, Segoe UI Emoji" font-size="20px" fill="#1e1e1e" text-anchor="middle" style="white-space: pre;" direction="ltr" dominant-baseline="text-before-edge">comms</text></g></svg>