<svg version="1.1" xmlns="http://www.w3.org/2000/svg" viewBox="0 0 950.6750030517578 794.375" width="1901.3500061035156" height="1588.75">
  <!-- svg-source:excalidraw -->
  
  <defs>
    <style class="style-fonts">
      @font-face {
        font-family: "Virgil";
        src: url("https://excalidraw.com/Virgil.woff2");
      }
      @font-face {
        font-family: "Cascadia";
        src: url("https://excalidraw.com/Cascadia.woff2");
      }
    </style>
    
  </defs>
  <rect x="0" y="0" width="950.6750030517578" height="794.375" fill="#ffffff"></rect><g stroke-linecap="round" transform="translate(231.3000030517578 10) rotate(0 108.125 74.375)"><path d="M32 0 M32 0 C85.73 -0.63, 142.27 0.63, 184.25 0 M32 0 C79.07 2.19, 126.3 0.91, 184.25 0 M184.25 0 C205.93 1.53, 215.33 10.56, 216.25 32 M184.25 0 C204.62 0.69, 218.13 9.64, 216.25 32 M216.25 32 C216.59 63.17, 217.06 93.07, 216.25 116.75 M216.25 32 C216.06 57.68, 215.68 84.78, 216.25 116.75 M216.25 116.75 C217.17 136.98, 207.1 150.08, 184.25 148.75 M216.25 116.75 C217.2 138.14, 203.49 150.36, 184.25 148.75 M184.25 148.75 C150.08 149.99, 118.07 147.82, 32 148.75 M184.25 148.75 C136.38 148.92, 89.43 148.47, 32 148.75 M32 148.75 C10.63 148.97, 0.54 137.28, 0 116.75 M32 148.75 C11.03 150.71, -2.18 137.75, 0 116.75 M0 116.75 C1.56 81.21, -1.5 47.59, 0 32 M0 116.75 C-0.13 96.62, -0.48 75.76, 0 32 M0 32 C0.95 10.06, 9.02 0.81, 32 0 M0 32 C0.3 11.31, 8.64 -1.21, 32 0" stroke="#1e1e1e" stroke-width="4" fill="none"></path></g><g transform="translate(257.4250030517578 17.174999999999955) rotate(0 82 67.19999999999999)"><text x="82" y="0" font-family="Cascadia, Segoe UI Emoji" font-size="28px" fill="#1e1e1e" text-anchor="middle" style="white-space: pre;" direction="ltr" dominant-baseline="text-before-edge">ESP: Get </text><text x="82" y="33.6" font-family="Cascadia, Segoe UI Emoji" font-size="28px" fill="#1e1e1e" text-anchor="middle" style="white-space: pre;" direction="ltr" dominant-baseline="text-before-edge">next load </text><text x="82" y="67.2" font-family="Cascadia, Segoe UI Emoji" font-size="28px" fill="#1e1e1e" text-anchor="middle" style="white-space: pre;" direction="ltr" dominant-baseline="text-before-edge">shedding </text><text x="82" y="100.80000000000001" font-family="Cascadia, Segoe UI Emoji" font-size="28px" fill="#1e1e1e" text-anchor="middle" style="white-space: pre;" direction="ltr" dominant-baseline="text-before-edge">event</text></g><g stroke-linecap="round" transform="translate(61.92500305175781 277.5) rotate(0 108.125 74.375)"><path d="M32 0 M32 0 C66.08 0.44, 103.1 1.58, 184.25 0 M32 0 C77.15 0.32, 122.07 0.94, 184.25 0 M184.25 0 C205.78 -1.69, 216.36 9.29, 216.25 32 M184.25 0 C204 1.8, 218.03 10.78, 216.25 32 M216.25 32 C215.76 59.05, 215.51 81.47, 216.25 116.75 M216.25 32 C216.7 50.04, 217.35 69.18, 216.25 116.75 M216.25 116.75 C216.43 137.47, 204.96 147.92, 184.25 148.75 M216.25 116.75 C215.66 137.38, 204.52 150.28, 184.25 148.75 M184.25 148.75 C125.46 147.64, 64.78 148.15, 32 148.75 M184.25 148.75 C147.33 149.16, 109.94 150.67, 32 148.75 M32 148.75 C12.33 148.75, 1.93 138.43, 0 116.75 M32 148.75 C10.67 149.55, 0.52 139.78, 0 116.75 M0 116.75 C-0.92 89.64, -2.49 61.54, 0 32 M0 116.75 C0.84 90.7, 0.82 62.26, 0 32 M0 32 C0.69 10.9, 11.67 1.16, 32 0 M0 32 C0.4 12.62, 9 0.17, 32 0" stroke="#1e1e1e" stroke-width="4" fill="none"></path></g><g transform="translate(71.6500015258789 301.475) rotate(0 98.4000015258789 50.400000000000006)"><text x="98.4000015258789" y="0" font-family="Cascadia, Segoe UI Emoji" font-size="28px" fill="#1e1e1e" text-anchor="middle" style="white-space: pre;" direction="ltr" dominant-baseline="text-before-edge">Set timer 5 </text><text x="98.4000015258789" y="33.6" font-family="Cascadia, Segoe UI Emoji" font-size="28px" fill="#1e1e1e" text-anchor="middle" style="white-space: pre;" direction="ltr" dominant-baseline="text-before-edge">minutes </text><text x="98.4000015258789" y="67.2" font-family="Cascadia, Segoe UI Emoji" font-size="28px" fill="#1e1e1e" text-anchor="middle" style="white-space: pre;" direction="ltr" dominant-baseline="text-before-edge">before start</text></g><g stroke-linecap="round" transform="translate(408.1750030517578 277.5) rotate(0 108.125 74.375)"><path d="M32 0 M32 0 C69.21 1.52, 106.73 0.01, 184.25 0 M32 0 C93.01 1.5, 153.9 1.94, 184.25 0 M184.25 0 C205.19 -1.52, 217.36 10.91, 216.25 32 M184.25 0 C207.54 -0.03, 217.54 9.01, 216.25 32 M216.25 32 C216.48 49.99, 215.28 73.21, 216.25 116.75 M216.25 32 C216.85 65.79, 215.71 100.4, 216.25 116.75 M216.25 116.75 C217.01 137.23, 205.88 147.51, 184.25 148.75 M216.25 116.75 C214.17 140.12, 205.26 149.54, 184.25 148.75 M184.25 148.75 C129.54 146.65, 71.74 145.46, 32 148.75 M184.25 148.75 C131.38 149.67, 77.12 149.51, 32 148.75 M32 148.75 C9.64 147.09, -1.7 137.85, 0 116.75 M32 148.75 C8.5 148.25, -1.81 138.79, 0 116.75 M0 116.75 C1.28 97.98, 2.62 79.52, 0 32 M0 116.75 C-1.66 96.31, 0.19 74.49, 0 32 M0 32 C-0.07 8.77, 11.45 1.49, 32 0 M0 32 C0.93 8.39, 10.73 -0.38, 32 0" stroke="#1e1e1e" stroke-width="4" fill="none"></path></g><g transform="translate(417.9000015258789 301.475) rotate(0 98.4000015258789 50.400000000000006)"><text x="98.4000015258789" y="0" font-family="Cascadia, Segoe UI Emoji" font-size="28px" fill="#1e1e1e" text-anchor="middle" style="white-space: pre;" direction="ltr" dominant-baseline="text-before-edge">Set timer 5 </text><text x="98.4000015258789" y="33.6" font-family="Cascadia, Segoe UI Emoji" font-size="28px" fill="#1e1e1e" text-anchor="middle" style="white-space: pre;" direction="ltr" dominant-baseline="text-before-edge">minutes </text><text x="98.4000015258789" y="67.2" font-family="Cascadia, Segoe UI Emoji" font-size="28px" fill="#1e1e1e" text-anchor="middle" style="white-space: pre;" direction="ltr" dominant-baseline="text-before-edge">after end</text></g><g stroke-linecap="round"><g transform="translate(252.5500030517578 178.75) rotate(0 -49.493738000048324 48.077999667329664)"><path d="M-1.13 0.61 C-11.23 5.11, -45.45 10.75, -61.79 26.55 C-78.12 42.34, -92.84 83.81, -99.15 95.4 M0.48 -0.11 C-9.61 4.55, -45.7 11.52, -62.36 27.58 C-79.02 43.65, -93.32 84.69, -99.47 96.27" stroke="#1e1e1e" stroke-width="4" fill="none"></path></g><g transform="translate(252.5500030517578 178.75) rotate(0 -49.493738000048324 48.077999667329664)"><path d="M-96.28 67.54 C-99.44 73.81, -99.71 79.01, -99.78 96.97 M-97.93 66.29 C-96.92 72.89, -98.09 78.93, -98.7 95.86" stroke="#1e1e1e" stroke-width="4" fill="none"></path></g><g transform="translate(252.5500030517578 178.75) rotate(0 -49.493738000048324 48.077999667329664)"><path d="M-77.56 75.93 C-84.48 80.33, -88.55 83.83, -99.78 96.97 M-79.21 74.69 C-82.15 79.54, -87.23 83.82, -98.7 95.86" stroke="#1e1e1e" stroke-width="4" fill="none"></path></g></g><mask></mask><g stroke-linecap="round"><g transform="translate(423.8000030517578 178.75) rotate(0 38.022313930266534 46.290727895996554)"><path d="M-0.44 -0.88 C7.4 4.59, 35.48 16.98, 47.9 32.58 C60.32 48.17, 69.58 82.55, 74.08 92.7 M1.53 1.27 C9.17 6.86, 34.68 18.13, 47.17 33.5 C59.66 48.86, 71.84 83.31, 76.49 93.46" stroke="#1e1e1e" stroke-width="4" fill="none"></path></g><g transform="translate(423.8000030517578 178.75) rotate(0 38.022313930266534 46.290727895996554)"><path d="M54.75 72.02 C61.73 78.08, 69.45 87.61, 76 92.4 M56.1 72.25 C63.97 79.09, 72.51 88.29, 76.98 93.41" stroke="#1e1e1e" stroke-width="4" fill="none"></path></g><g transform="translate(423.8000030517578 178.75) rotate(0 38.022313930266534 46.290727895996554)"><path d="M73.7 64.16 C73.64 73.07, 74.33 85.51, 76 92.4 M75.06 64.39 C75.51 74.24, 76.72 86.48, 76.98 93.41" stroke="#1e1e1e" stroke-width="4" fill="none"></path></g></g><mask></mask><g stroke-linecap="round" transform="translate(724.4250030517578 271.875) rotate(0 108.125 74.375)"><path d="M32 0 M32 0 C71.06 0.99, 111.15 -1.55, 184.25 0 M32 0 C71.38 0.09, 110.27 0.75, 184.25 0 M184.25 0 C205.44 1.21, 215.05 11.41, 216.25 32 M184.25 0 C205.29 -0.44, 218.32 12.14, 216.25 32 M216.25 32 C217.25 61.11, 215.37 94.34, 216.25 116.75 M216.25 32 C216.83 48.97, 216.75 65.57, 216.25 116.75 M216.25 116.75 C217.22 137.47, 203.64 149.37, 184.25 148.75 M216.25 116.75 C215.84 136.98, 203.53 150.58, 184.25 148.75 M184.25 148.75 C142.12 149.87, 97.11 147.38, 32 148.75 M184.25 148.75 C132.86 146.95, 80.04 148.15, 32 148.75 M32 148.75 C10.13 150.68, -1.32 138.9, 0 116.75 M32 148.75 C12.63 148.25, 1.28 140.26, 0 116.75 M0 116.75 C0.22 95.23, -2.05 71.74, 0 32 M0 116.75 C0.09 87.29, -0.05 56.75, 0 32 M0 32 C0.4 11.26, 12.34 -0.97, 32 0 M0 32 C1.24 9.07, 8.45 1.19, 32 0" stroke="#1e1e1e" stroke-width="4" fill="none"></path></g><g transform="translate(734.1500015258789 279.04999999999995) rotate(0 98.4000015258789 67.19999999999999)"><text x="98.4000015258789" y="0" font-family="Cascadia, Segoe UI Emoji" font-size="28px" fill="#1e1e1e" text-anchor="middle" style="white-space: pre;" direction="ltr" dominant-baseline="text-before-edge">Is it sleep </text><text x="98.4000015258789" y="33.6" font-family="Cascadia, Segoe UI Emoji" font-size="28px" fill="#1e1e1e" text-anchor="middle" style="white-space: pre;" direction="ltr" dominant-baseline="text-before-edge">time?</text><text x="98.4000015258789" y="67.2" font-family="Cascadia, Segoe UI Emoji" font-size="28px" fill="#1e1e1e" text-anchor="middle" style="white-space: pre;" direction="ltr" dominant-baseline="text-before-edge"></text><text x="98.4000015258789" y="100.80000000000001" font-family="Cascadia, Segoe UI Emoji" font-size="28px" fill="#1e1e1e" text-anchor="middle" style="white-space: pre;" direction="ltr" dominant-baseline="text-before-edge"></text></g><g stroke-linecap="round"><g transform="translate(630.6750030517578 345.4499556733738) rotate(0 42.405143862725254 -0.4311583747551708)"><path d="M0.77 0.26 C4.25 0.1, 7.88 0.61, 21.93 0.19 C35.99 -0.23, 74.78 -1.85, 85.1 -2.28 M-0.29 -0.65 C3.45 -0.15, 9.85 1.5, 24.02 1.41 C38.19 1.32, 74.75 -0.72, 84.72 -1.21" stroke="#1e1e1e" stroke-width="4" fill="none"></path></g><g transform="translate(630.6750030517578 345.4499556733738) rotate(0 42.405143862725254 -0.4311583747551708)"><path d="M57.53 8.5 C66.65 7, 77.55 0.42, 83.78 -2.8 M58.08 11.17 C67.73 6.47, 78.98 2.3, 85.05 -1.69" stroke="#1e1e1e" stroke-width="4" fill="none"></path></g><g transform="translate(630.6750030517578 345.4499556733738) rotate(0 42.405143862725254 -0.4311583747551708)"><path d="M56.47 -11.99 C66.2 -5.57, 77.51 -4.23, 83.78 -2.8 M57.02 -9.32 C66.98 -6.17, 78.63 -2.5, 85.05 -1.69" stroke="#1e1e1e" stroke-width="4" fill="none"></path></g></g><mask></mask><g stroke-linecap="round" transform="translate(843.8000030517578 375) rotate(0 43.125 21.80000000000001)"><path d="M11.75 -1.2 L79.54 -0.02 L83.82 6.23 L86.53 35.92 L78.34 42.88 L74.32 42.93 L7.8 44.04 L2.22 37.97 L1.85 10.88 L3.85 0.9 L11.33 -1.46" stroke="none" stroke-width="0" fill="#ffc9c9"></path><path d="M10.9 0 M10.9 0 C26.07 -0.72, 40.27 1.43, 75.35 0 M10.9 0 C27.01 0.28, 42.5 -0.89, 75.35 0 M75.35 0 C83.42 -1.26, 87.1 2.04, 86.25 10.9 M75.35 0 C84.04 -1.44, 87.73 1.43, 86.25 10.9 M86.25 10.9 C87.43 18.31, 88.04 29.88, 86.25 32.7 M86.25 10.9 C87.06 17.97, 87 25.09, 86.25 32.7 M86.25 32.7 C85.41 38.28, 83.68 42.25, 75.35 43.6 M86.25 32.7 C86.01 38.7, 80.49 42.47, 75.35 43.6 M75.35 43.6 C57.14 45.03, 33.2 44.36, 10.9 43.6 M75.35 43.6 C61.33 44.59, 46.65 42.99, 10.9 43.6 M10.9 43.6 C3.73 44.7, 0.7 39.98, 0 32.7 M10.9 43.6 C2.97 45.46, -0.17 37.95, 0 32.7 M0 32.7 C-1.73 29.67, 1.11 20.9, 0 10.9 M0 32.7 C0.64 27.86, 0.62 21.39, 0 10.9 M0 10.9 C1 4.1, 2.72 -1.97, 10.9 0 M0 10.9 C-0.95 2.33, 2.33 -1.82, 10.9 0" stroke="#1e1e1e" stroke-width="4" fill="none"></path></g><g transform="translate(862.3250026702881 380) rotate(0 24.600000381469727 16.80000000000001)"><text x="24.600000381469727" y="0" font-family="Cascadia, Segoe UI Emoji" font-size="28px" fill="#1e1e1e" text-anchor="middle" style="white-space: pre;" direction="ltr" dominant-baseline="text-before-edge">YES</text></g><g stroke-linecap="round" transform="translate(736.9250030517578 374.375) rotate(0 43.125 21.80000000000001)"><path d="M8.99 1.83 L80.73 1.17 L86.68 5.01 L87.29 39.38 L80.79 43.94 L76.42 45 L5.72 44.2 L-0.03 36.63 L-1.69 11.97 L1.37 2.51 L9.8 -1.85" stroke="none" stroke-width="0" fill="#b2f2bb"></path><path d="M10.9 0 M10.9 0 C25.75 1.56, 45.09 -2.26, 75.35 0 M10.9 0 C34.53 0.81, 57.91 0.44, 75.35 0 M75.35 0 C80.8 0.1, 87.35 4.33, 86.25 10.9 M75.35 0 C82.63 -0.66, 88.11 3.46, 86.25 10.9 M86.25 10.9 C86.58 13.86, 88.06 21.33, 86.25 32.7 M86.25 10.9 C86.35 15.91, 87.14 20.45, 86.25 32.7 M86.25 32.7 C86.84 40.97, 83.08 42.68, 75.35 43.6 M86.25 32.7 C83.98 39.02, 81.32 42.3, 75.35 43.6 M75.35 43.6 C59.63 44.32, 45.38 42.37, 10.9 43.6 M75.35 43.6 C54.47 43.42, 32.09 43.29, 10.9 43.6 M10.9 43.6 C2.56 44.52, 1.48 40.42, 0 32.7 M10.9 43.6 C4.45 41.56, -0.19 38.91, 0 32.7 M0 32.7 C-0.76 26.56, -0.12 19.81, 0 10.9 M0 32.7 C-0.51 25.14, 0.97 17.53, 0 10.9 M0 10.9 C0.82 3.93, 4.83 1.7, 10.9 0 M0 10.9 C0.92 3.23, 2.7 -0.56, 10.9 0" stroke="#1e1e1e" stroke-width="4" fill="none"></path></g><g transform="translate(763.6500034332275 379.375) rotate(0 16.399999618530273 16.80000000000001)"><text x="16.399999618530273" y="0" font-family="Cascadia, Segoe UI Emoji" font-size="28px" fill="#1e1e1e" text-anchor="middle" style="white-space: pre;" direction="ltr" dominant-baseline="text-before-edge">NO</text></g><g stroke-linecap="round" transform="translate(245.6750030517578 635.625) rotate(0 108.125 74.375)"><path d="M32 0 M32 0 C81.51 -2.86, 131.01 -1.96, 184.25 0 M32 0 C90.53 -0.33, 149.58 0.15, 184.25 0 M184.25 0 C206.55 1.24, 215.02 12.48, 216.25 32 M184.25 0 C207.5 -1.05, 216.89 10.13, 216.25 32 M216.25 32 C215.14 59.41, 217.2 87.85, 216.25 116.75 M216.25 32 C217.64 63.88, 215.73 95.69, 216.25 116.75 M216.25 116.75 C215.8 136.57, 205.86 150.01, 184.25 148.75 M216.25 116.75 C218.28 135.81, 205.5 148.02, 184.25 148.75 M184.25 148.75 C133.83 147.24, 86.88 147.64, 32 148.75 M184.25 148.75 C152.79 148.89, 120.93 148.37, 32 148.75 M32 148.75 C10.67 149.6, -1.77 137.83, 0 116.75 M32 148.75 C8.61 149.85, -2.14 140.32, 0 116.75 M0 116.75 C-0.06 85.85, -0.72 49.94, 0 32 M0 116.75 C1.03 85.68, 0.16 53.41, 0 32 M0 32 C-1.7 9.04, 10.69 -0.02, 32 0 M0 32 C-0.46 12.43, 9.2 -2.19, 32 0" stroke="#1e1e1e" stroke-width="4" fill="none"></path></g><g transform="translate(255.4000015258789 659.6) rotate(0 98.4000015258789 50.400000000000006)"><text x="98.4000015258789" y="0" font-family="Cascadia, Segoe UI Emoji" font-size="28px" fill="#1e1e1e" text-anchor="middle" style="white-space: pre;" direction="ltr" dominant-baseline="text-before-edge">Light switch</text><text x="98.4000015258789" y="33.6" font-family="Cascadia, Segoe UI Emoji" font-size="28px" fill="#1e1e1e" text-anchor="middle" style="white-space: pre;" direction="ltr" dominant-baseline="text-before-edge">function </text><text x="98.4000015258789" y="67.2" font-family="Cascadia, Segoe UI Emoji" font-size="28px" fill="#1e1e1e" text-anchor="middle" style="white-space: pre;" direction="ltr" dominant-baseline="text-before-edge">on/off</text></g><g mask="url(#mask-FRxfkK5u6m6xR4p3-EdRz)" stroke-linecap="round"><g transform="translate(114.7331270811406 451.25) rotate(0 42.060712107525234 121.64462985139781)"><path d="M0.75 0.25 C-4.58 20.86, -51.91 83.12, -31.88 123.52 C-11.85 163.92, 95.42 222.8, 120.92 242.64 M-0.32 -0.66 C-5.28 20.15, -49.73 84.17, -29.67 124.94 C-9.61 165.7, 94.89 224.16, 120.05 243.95" stroke="#1e1e1e" stroke-width="4" fill="none"></path></g><g transform="translate(114.7331270811406 451.25) rotate(0 42.060712107525234 121.64462985139781)"><path d="M91.37 235.12 C99.47 238.43, 108.73 240.94, 119.92 245.72 M90.16 237.51 C100.27 239.82, 109.66 242.79, 119.91 243.01" stroke="#1e1e1e" stroke-width="4" fill="none"></path></g><g transform="translate(114.7331270811406 451.25) rotate(0 42.060712107525234 121.64462985139781)"><path d="M102.84 218.1 C107.41 226.7, 113.16 234.42, 119.92 245.72 M101.63 220.49 C107.88 228.43, 113.4 237.14, 119.91 243.01" stroke="#1e1e1e" stroke-width="4" fill="none"></path></g></g><mask id="mask-FRxfkK5u6m6xR4p3-EdRz"><rect x="0" y="0" fill="#fff" width="366.76400360930694" height="793.9094518387592"></rect><rect x="10" y="541.4" fill="#000" width="147.60000610351562" height="67.2" opacity="1"></rect></mask><g transform="translate(10 541.4) rotate(0 146.79383918866583 31.494629851397832)"><text x="73.80000305175781" y="0" font-family="Cascadia, Segoe UI Emoji" font-size="28px" fill="#1e1e1e" text-anchor="middle" style="white-space: pre;" direction="ltr" dominant-baseline="text-before-edge">turn off </text><text x="73.80000305175781" y="33.6" font-family="Cascadia, Segoe UI Emoji" font-size="28px" fill="#1e1e1e" text-anchor="middle" style="white-space: pre;" direction="ltr" dominant-baseline="text-before-edge">event</text></g><g mask="url(#mask-f5x2Jtd96xTGlmvHnOMmD)" stroke-linecap="round"><g transform="translate(782.7001785310429 426.25) rotate(0 -155.77495496659895 138.50354851803328)"><path d="M-0.52 0.04 C-31.02 24.48, -130.13 100.86, -182.17 146.95 C-234.22 193.04, -290.89 255.08, -312.78 276.57 M1.41 -0.99 C-28.77 23.08, -127.47 98.7, -179.87 145.2 C-232.26 191.7, -290.76 256.08, -312.96 278" stroke="#1e1e1e" stroke-width="4" fill="none"></path></g><g transform="translate(782.7001785310429 426.25) rotate(0 -155.77495496659895 138.50354851803328)"><path d="M-300.65 249.32 C-303.96 262.48, -309.28 271.33, -313.78 278.67 M-299.79 251.44 C-305.51 259.92, -309.35 269.57, -313.59 278.61" stroke="#1e1e1e" stroke-width="4" fill="none"></path></g><g transform="translate(782.7001785310429 426.25) rotate(0 -155.77495496659895 138.50354851803328)"><path d="M-285.91 263.6 C-294.68 271.45, -305.41 275.06, -313.78 278.67 M-285.05 265.72 C-296.01 269.15, -305.08 273.73, -313.59 278.61" stroke="#1e1e1e" stroke-width="4" fill="none"></path></g></g><mask id="mask-f5x2Jtd96xTGlmvHnOMmD"><rect x="0" y="0" fill="#fff" width="1196.600354010328" height="802.6089218620128"></rect><rect x="543.9000015258789" y="538.9" fill="#000" width="114.80000305175781" height="67.2" opacity="1"></rect></mask><g transform="translate(543.9000015258789 538.9) rotate(0 83.025222038565 25.853548518033307)"><text x="57.400001525878906" y="0" font-family="Cascadia, Segoe UI Emoji" font-size="28px" fill="#1e1e1e" text-anchor="middle" style="white-space: pre;" direction="ltr" dominant-baseline="text-before-edge">turn on</text><text x="57.400001525878906" y="33.6" font-family="Cascadia, Segoe UI Emoji" font-size="28px" fill="#1e1e1e" text-anchor="middle" style="white-space: pre;" direction="ltr" dominant-baseline="text-before-edge">event</text></g><g stroke-linecap="round" transform="translate(766.9250030517578 575.625) rotate(0 85 48)"><path d="M24 0 M24 0 C55.02 -1.12, 82.62 0.27, 146 0 M24 0 C61.23 0.67, 99.73 -0.21, 146 0 M146 0 C160.2 0.66, 169.5 9.92, 170 24 M146 0 C161.55 -1.53, 170.48 9.36, 170 24 M170 24 C171.35 37.94, 168.78 50.44, 170 72 M170 24 C171.22 37.35, 169.64 51.42, 170 72 M170 72 C171.17 86.28, 162.6 97.06, 146 96 M170 72 C169.16 89.3, 160.5 93.71, 146 96 M146 96 C106.58 94.11, 64.96 96.96, 24 96 M146 96 C104.02 97.2, 63.54 96.64, 24 96 M24 96 C6.76 96.12, 1.29 88.04, 0 72 M24 96 C9.18 94.98, 2.15 87.29, 0 72 M0 72 C-2 57.04, 1.06 44.87, 0 24 M0 72 C0.75 55.32, -0.67 37.64, 0 24 M0 24 C0.01 8.85, 6.78 -0.8, 24 0 M0 24 C0.61 8.49, 5.99 -1.95, 24 0" stroke="#1e1e1e" stroke-width="4" fill="none"></path></g><g transform="translate(778.125 590.025) rotate(0 73.80000305175781 33.599999999999994)"><text x="73.80000305175781" y="0" font-family="Cascadia, Segoe UI Emoji" font-size="28px" fill="#1e1e1e" text-anchor="middle" style="white-space: pre;" direction="ltr" dominant-baseline="text-before-edge">Ignore/do</text><text x="73.80000305175781" y="33.6" font-family="Cascadia, Segoe UI Emoji" font-size="28px" fill="#1e1e1e" text-anchor="middle" style="white-space: pre;" direction="ltr" dominant-baseline="text-before-edge">nothing</text></g><g stroke-linecap="round"><g transform="translate(903.8315819865716 420.0939087930494) rotate(0 0.5117598247817341 76.31134773255113)"><path d="M-0.95 -0.07 C-0.94 25.4, -0.58 128.06, -0.33 153.78 M0.76 -1.16 C1.17 23.87, 2.11 126.28, 1.95 151.87" stroke="#1e1e1e" stroke-width="4" fill="none"></path></g><g transform="translate(903.8315819865716 420.0939087930494) rotate(0 0.5117598247817341 76.31134773255113)"><path d="M-8.51 122.36 C-4.71 131.52, -1.11 139.46, 3.72 149.9 M-7.61 124.31 C-4.96 131.96, -2.51 138.95, 0.99 151.21" stroke="#1e1e1e" stroke-width="4" fill="none"></path></g><g transform="translate(903.8315819865716 420.0939087930494) rotate(0 0.5117598247817341 76.31134773255113)"><path d="M12.01 122.3 C10.28 131.32, 8.35 139.27, 3.72 149.9 M12.91 124.25 C9.88 131.94, 6.66 138.94, 0.99 151.21" stroke="#1e1e1e" stroke-width="4" fill="none"></path></g></g><mask></mask><g stroke-linecap="round" transform="translate(237.88333129882812 405.3333282470703) rotate(0 22.166671752929688 22.166671752929688)"><path d="M44.33 22.17 C44.33 23.45, 44.22 24.75, 44 26.02 C43.77 27.28, 43.44 28.54, 43 29.75 C42.56 30.95, 42.01 32.14, 41.36 33.25 C40.72 34.36, 39.97 35.43, 39.15 36.42 C38.32 37.4, 37.4 38.32, 36.42 39.15 C35.43 39.97, 34.36 40.72, 33.25 41.36 C32.14 42.01, 30.95 42.56, 29.75 43 C28.54 43.44, 27.28 43.77, 26.02 44 C24.75 44.22, 23.45 44.33, 22.17 44.33 C20.88 44.33, 19.58 44.22, 18.32 44 C17.05 43.77, 15.79 43.44, 14.59 43 C13.38 42.56, 12.19 42.01, 11.08 41.36 C9.97 40.72, 8.9 39.97, 7.92 39.15 C6.94 38.32, 6.01 37.4, 5.19 36.42 C4.36 35.43, 3.61 34.36, 2.97 33.25 C2.33 32.14, 1.78 30.95, 1.34 29.75 C0.9 28.54, 0.56 27.28, 0.34 26.02 C0.11 24.75, 0 23.45, 0 22.17 C0 20.88, 0.11 19.58, 0.34 18.32 C0.56 17.05, 0.9 15.79, 1.34 14.59 C1.78 13.38, 2.33 12.19, 2.97 11.08 C3.61 9.97, 4.36 8.9, 5.19 7.92 C6.01 6.94, 6.94 6.01, 7.92 5.19 C8.9 4.36, 9.97 3.61, 11.08 2.97 C12.19 2.33, 13.38 1.78, 14.59 1.34 C15.79 0.9, 17.05 0.56, 18.32 0.34 C19.58 0.11, 20.88 0, 22.17 0 C23.45 0, 24.75 0.11, 26.02 0.34 C27.28 0.56, 28.54 0.9, 29.75 1.34 C30.95 1.78, 32.14 2.33, 33.25 2.97 C34.36 3.61, 35.43 4.36, 36.42 5.19 C37.4 6.01, 38.32 6.94, 39.15 7.92 C39.97 8.9, 40.72 9.97, 41.36 11.08 C42.01 12.19, 42.56 13.38, 43 14.59 C43.44 15.79, 43.77 17.05, 44 18.32 C44.22 19.58, 44.28 21.53, 44.33 22.17 C44.39 22.81, 44.39 21.53, 44.33 22.17" stroke="none" stroke-width="0" fill="#868e96"></path><path d="M44.33 22.17 C44.33 23.45, 44.22 24.75, 44 26.02 C43.77 27.28, 43.44 28.54, 43 29.75 C42.56 30.95, 42.01 32.14, 41.36 33.25 C40.72 34.36, 39.97 35.43, 39.15 36.42 C38.32 37.4, 37.4 38.32, 36.42 39.15 C35.43 39.97, 34.36 40.72, 33.25 41.36 C32.14 42.01, 30.95 42.56, 29.75 43 C28.54 43.44, 27.28 43.77, 26.02 44 C24.75 44.22, 23.45 44.33, 22.17 44.33 C20.88 44.33, 19.58 44.22, 18.32 44 C17.05 43.77, 15.79 43.44, 14.59 43 C13.38 42.56, 12.19 42.01, 11.08 41.36 C9.97 40.72, 8.9 39.97, 7.92 39.15 C6.94 38.32, 6.01 37.4, 5.19 36.42 C4.36 35.43, 3.61 34.36, 2.97 33.25 C2.33 32.14, 1.78 30.95, 1.34 29.75 C0.9 28.54, 0.56 27.28, 0.34 26.02 C0.11 24.75, 0 23.45, 0 22.17 C0 20.88, 0.11 19.58, 0.34 18.32 C0.56 17.05, 0.9 15.79, 1.34 14.59 C1.78 13.38, 2.33 12.19, 2.97 11.08 C3.61 9.97, 4.36 8.9, 5.19 7.92 C6.01 6.94, 6.94 6.01, 7.92 5.19 C8.9 4.36, 9.97 3.61, 11.08 2.97 C12.19 2.33, 13.38 1.78, 14.59 1.34 C15.79 0.9, 17.05 0.56, 18.32 0.34 C19.58 0.11, 20.88 0, 22.17 0 C23.45 0, 24.75 0.11, 26.02 0.34 C27.28 0.56, 28.54 0.9, 29.75 1.34 C30.95 1.78, 32.14 2.33, 33.25 2.97 C34.36 3.61, 35.43 4.36, 36.42 5.19 C37.4 6.01, 38.32 6.94, 39.15 7.92 C39.97 8.9, 40.72 9.97, 41.36 11.08 C42.01 12.19, 42.56 13.38, 43 14.59 C43.44 15.79, 43.77 17.05, 44 18.32 C44.22 19.58, 44.28 21.53, 44.33 22.17 C44.39 22.81, 44.39 21.53, 44.33 22.17" stroke="#000000" stroke-width="4" fill="none"></path></g><g stroke-linecap="round" transform="translate(239.5141093879114 406.7829133788277) rotate(0 20.717080400200302 20.717080400200302)"><path d="M41.43 20.72 C41.43 21.92, 41.33 23.13, 41.12 24.31 C40.91 25.5, 40.59 26.68, 40.18 27.8 C39.77 28.93, 39.26 30.04, 38.66 31.08 C38.06 32.11, 37.36 33.12, 36.59 34.03 C35.82 34.95, 34.95 35.82, 34.03 36.59 C33.12 37.36, 32.11 38.06, 31.08 38.66 C30.04 39.26, 28.93 39.77, 27.8 40.18 C26.68 40.59, 25.5 40.91, 24.31 41.12 C23.13 41.33, 21.92 41.43, 20.72 41.43 C19.52 41.43, 18.3 41.33, 17.12 41.12 C15.94 40.91, 14.76 40.59, 13.63 40.18 C12.5 39.77, 11.4 39.26, 10.36 38.66 C9.32 38.06, 8.32 37.36, 7.4 36.59 C6.48 35.82, 5.62 34.95, 4.85 34.03 C4.08 33.12, 3.38 32.11, 2.78 31.08 C2.18 30.04, 1.66 28.93, 1.25 27.8 C0.84 26.68, 0.52 25.5, 0.31 24.31 C0.11 23.13, 0 21.92, 0 20.72 C0 19.52, 0.11 18.3, 0.31 17.12 C0.52 15.94, 0.84 14.76, 1.25 13.63 C1.66 12.5, 2.18 11.4, 2.78 10.36 C3.38 9.32, 4.08 8.32, 4.85 7.4 C5.62 6.48, 6.48 5.62, 7.4 4.85 C8.32 4.08, 9.32 3.38, 10.36 2.78 C11.4 2.18, 12.5 1.66, 13.63 1.25 C14.76 0.84, 15.94 0.52, 17.12 0.31 C18.3 0.11, 19.52 0, 20.72 0 C21.92 0, 23.13 0.11, 24.31 0.31 C25.5 0.52, 26.68 0.84, 27.8 1.25 C28.93 1.66, 30.04 2.18, 31.08 2.78 C32.11 3.38, 33.12 4.08, 34.03 4.85 C34.95 5.62, 35.82 6.48, 36.59 7.4 C37.36 8.32, 38.06 9.32, 38.66 10.36 C39.26 11.4, 39.77 12.5, 40.18 13.63 C40.59 14.76, 40.91 15.94, 41.12 17.12 C41.33 18.3, 41.38 20.12, 41.43 20.72 C41.49 21.32, 41.49 20.12, 41.43 20.72" stroke="none" stroke-width="0" fill="#fff"></path><path d="M41.43 20.72 C41.43 21.92, 41.33 23.13, 41.12 24.31 C40.91 25.5, 40.59 26.68, 40.18 27.8 C39.77 28.93, 39.26 30.04, 38.66 31.08 C38.06 32.11, 37.36 33.12, 36.59 34.03 C35.82 34.95, 34.95 35.82, 34.03 36.59 C33.12 37.36, 32.11 38.06, 31.08 38.66 C30.04 39.26, 28.93 39.77, 27.8 40.18 C26.68 40.59, 25.5 40.91, 24.31 41.12 C23.13 41.33, 21.92 41.43, 20.72 41.43 C19.52 41.43, 18.3 41.33, 17.12 41.12 C15.94 40.91, 14.76 40.59, 13.63 40.18 C12.5 39.77, 11.4 39.26, 10.36 38.66 C9.32 38.06, 8.32 37.36, 7.4 36.59 C6.48 35.82, 5.62 34.95, 4.85 34.03 C4.08 33.12, 3.38 32.11, 2.78 31.08 C2.18 30.04, 1.66 28.93, 1.25 27.8 C0.84 26.68, 0.52 25.5, 0.31 24.31 C0.11 23.13, 0 21.92, 0 20.72 C0 19.52, 0.11 18.3, 0.31 17.12 C0.52 15.94, 0.84 14.76, 1.25 13.63 C1.66 12.5, 2.18 11.4, 2.78 10.36 C3.38 9.32, 4.08 8.32, 4.85 7.4 C5.62 6.48, 6.48 5.62, 7.4 4.85 C8.32 4.08, 9.32 3.38, 10.36 2.78 C11.4 2.18, 12.5 1.66, 13.63 1.25 C14.76 0.84, 15.94 0.52, 17.12 0.31 C18.3 0.11, 19.52 0, 20.72 0 C21.92 0, 23.13 0.11, 24.31 0.31 C25.5 0.52, 26.68 0.84, 27.8 1.25 C28.93 1.66, 30.04 2.18, 31.08 2.78 C32.11 3.38, 33.12 4.08, 34.03 4.85 C34.95 5.62, 35.82 6.48, 36.59 7.4 C37.36 8.32, 38.06 9.32, 38.66 10.36 C39.26 11.4, 39.77 12.5, 40.18 13.63 C40.59 14.76, 40.91 15.94, 41.12 17.12 C41.33 18.3, 41.38 20.12, 41.43 20.72 C41.49 21.32, 41.49 20.12, 41.43 20.72" stroke="#000000" stroke-width="4" fill="none"></path></g><g stroke-linecap="round"><g transform="translate(260.0696447080881 415.9543208169181) rotate(0 0.023947890549067097 7.034503816913144)"><path d="M0 0 C0.02 4.68, 0.03 9.35, 0.05 14.07 M0 0 C0.01 2.93, 0.02 5.86, 0.05 14.07" stroke="#000000" stroke-width="4" fill="none"></path></g></g><mask></mask><g stroke-linecap="round"><g transform="translate(264.3934636728762 427.6447423719957) rotate(113.07234683558902 0.22757633731407623 4.105938853903723)"><path d="M0 0 C0.17 2.99, 0.33 5.99, 0.46 8.21 M0 0 C0.12 2.1, 0.23 4.2, 0.46 8.21" stroke="#000000" stroke-width="4" fill="none"></path></g></g><mask></mask><g stroke-linecap="round"><g transform="translate(261.31069142490963 445.0844166382905) rotate(359.8683043500925 -0.0007725605530026769 1.3755187452227062)"><path d="M0 0 C0 0.46, 0 2.29, 0 2.75 M0 0 C0 0.46, 0 2.29, 0 2.75" stroke="#000000" stroke-width="4" fill="none"></path></g></g><mask></mask><g stroke-linecap="round"><g transform="translate(260.17348161412843 406.94983063813766) rotate(179.00284108061678 -0.0007725605530026769 1.3755187452227062)"><path d="M0 0 C0 0.46, 0 2.29, 0 2.75 M0 0 C0 0.46, 0 2.29, 0 2.75" stroke="#000000" stroke-width="4" fill="none"></path></g></g><mask></mask><g stroke-linecap="round"><g transform="translate(271.18524627575573 441.5977656887365) rotate(332.96017645332864 -0.0007725605530026769 1.3755187452227062)"><path d="M0 0 C0 0.46, 0 2.29, 0 2.75 M0 0 C0 0.46, 0 2.29, 0 2.75" stroke="#000000" stroke-width="4" fill="none"></path></g></g><mask></mask><g stroke-linecap="round"><g transform="translate(263.71262496300585 447.4953882820246) rotate(0 -0.036283493417528234 -0.4946597105930266)"><path d="M0 0 C-0.01 -0.16, -0.06 -0.82, -0.07 -0.99 M0 0 C-0.01 -0.16, -0.06 -0.82, -0.07 -0.99" stroke="#000000" stroke-width="4" fill="none"></path></g></g><mask></mask><g stroke-linecap="round"><g transform="translate(265.7774905514418 447.20853338062915) rotate(350.0134734660105 -0.029712823746194772 -0.5234955972634339)"><path d="M0 0 C-0.01 -0.17, -0.05 -0.87, -0.06 -1.05 M0 0 C-0.01 -0.17, -0.05 -0.87, -0.06 -1.05" stroke="#000000" stroke-width="4" fill="none"></path></g></g><mask></mask><g stroke-linecap="round"><g transform="translate(267.87589144805827 446.28616388223867) rotate(350.0134734660105 -0.0417265757404266 -0.3928493502866388)"><path d="M0 0 C-0.01 -0.13, -0.07 -0.65, -0.08 -0.79 M0 0 C-0.01 -0.13, -0.07 -0.65, -0.08 -0.79" stroke="#000000" stroke-width="4" fill="none"></path></g></g><mask></mask><g stroke-linecap="round"><g transform="translate(269.587972870824 445.27433163717944) rotate(345.5522046289154 -0.042003026958184364 -0.31453965193793465)"><path d="M0 0 C-0.01 -0.1, -0.07 -0.52, -0.08 -0.63 M0 0 C-0.01 -0.1, -0.07 -0.52, -0.08 -0.63" stroke="#000000" stroke-width="4" fill="none"></path></g></g><mask></mask><g stroke-linecap="round"><g transform="translate(277.9584089347925 433.9515036162447) rotate(296.85596947415047 -0.0007725605530026769 1.3755187452227062)"><path d="M0 0 C0 0.46, 0 2.29, 0 2.75 M0 0 C0 0.46, 0 2.29, 0 2.75" stroke="#000000" stroke-width="4" fill="none"></path></g></g><mask></mask><g stroke-linecap="round"><g transform="translate(273.14051316761754 442.89763186681944) rotate(332.6994962329149 -0.036283493417528234 -0.4946597105930266)"><path d="M0 0 C-0.01 -0.16, -0.06 -0.82, -0.07 -0.99 M0 0 C-0.01 -0.16, -0.06 -0.82, -0.07 -0.99" stroke="#000000" stroke-width="4" fill="none"></path></g></g><mask></mask><g stroke-linecap="round"><g transform="translate(274.8282843002164 441.7158875570468) rotate(322.71296969892546 -0.029712823746194772 -0.5234955972634339)"><path d="M0 0 C-0.01 -0.17, -0.05 -0.87, -0.06 -1.05 M0 0 C-0.01 -0.17, -0.05 -0.87, -0.06 -1.05" stroke="#000000" stroke-width="4" fill="none"></path></g></g><mask></mask><g stroke-linecap="round"><g transform="translate(276.31718968904903 439.9243536514183) rotate(322.71296969892546 -0.0417265757404266 -0.3928493502866388)"><path d="M0 0 C-0.01 -0.13, -0.07 -0.65, -0.08 -0.79 M0 0 C-0.01 -0.13, -0.07 -0.65, -0.08 -0.79" stroke="#000000" stroke-width="4" fill="none"></path></g></g><mask></mask><g stroke-linecap="round"><g transform="translate(277.4531404665955 438.2139073306804) rotate(318.2517008618303 -0.042003026958184364 -0.31453965193793465)"><path d="M0 0 C-0.01 -0.1, -0.07 -0.52, -0.08 -0.63 M0 0 C-0.01 -0.1, -0.07 -0.52, -0.08 -0.63" stroke="#000000" stroke-width="4" fill="none"></path></g></g><mask></mask><g stroke-linecap="round"><g transform="translate(279.4944453070168 423.60954918121604) rotate(269.4984037203515 -0.0007725605530026769 1.3755187452227062)"><path d="M0 0 C0 0.46, 0 2.29, 0 2.75 M0 0 C0 0.46, 0 2.29, 0 2.75" stroke="#000000" stroke-width="4" fill="none"></path></g></g><mask></mask><g stroke-linecap="round"><g transform="translate(279.1768054045176 433.93720501475406) rotate(300.04939096180686 -0.036283493417528234 -0.4946597105930266)"><path d="M0 0 C-0.01 -0.16, -0.06 -0.82, -0.07 -0.99 M0 0 C-0.01 -0.16, -0.06 -0.82, -0.07 -0.99" stroke="#000000" stroke-width="4" fill="none"></path></g></g><mask></mask><g stroke-linecap="round"><g transform="translate(279.97789325474685 432.0575627421328) rotate(290.0628644278174 -0.029712823746194772 -0.5234955972634339)"><path d="M0 0 C-0.01 -0.17, -0.05 -0.87, -0.06 -1.05 M0 0 C-0.01 -0.17, -0.05 -0.87, -0.06 -1.05" stroke="#000000" stroke-width="4" fill="none"></path></g></g><mask></mask><g stroke-linecap="round"><g transform="translate(280.26124816573673 429.71961872515345) rotate(290.0628644278174 -0.0417265757404266 -0.3928493502866388)"><path d="M0 0 C-0.01 -0.13, -0.07 -0.65, -0.08 -0.79 M0 0 C-0.01 -0.13, -0.07 -0.65, -0.08 -0.79" stroke="#000000" stroke-width="4" fill="none"></path></g></g><mask></mask><g stroke-linecap="round"><g transform="translate(280.3470736318924 427.6479871547814) rotate(285.6015955907222 -0.042003026958184364 -0.31453965193793465)"><path d="M0 0 C-0.01 -0.1, -0.07 -0.52, -0.08 -0.63 M0 0 C-0.01 -0.1, -0.07 -0.52, -0.08 -0.63" stroke="#000000" stroke-width="4" fill="none"></path></g></g><mask></mask><g stroke-linecap="round"><g transform="translate(275.87074540618823 414.747098348059) rotate(239.22532050034954 -0.0007725605530026769 1.3755187452227062)"><path d="M0 0 C0 0.46, 0 2.29, 0 2.75 M0 0 C0 0.46, 0 2.29, 0 2.75" stroke="#000000" stroke-width="4" fill="none"></path></g></g><mask></mask><g stroke-linecap="round"><g transform="translate(279.86265666149376 423.4965403406544) rotate(266.55550576689353 -0.036283493417528234 -0.4946597105930266)"><path d="M0 0 C-0.01 -0.16, -0.06 -0.82, -0.07 -0.99 M0 0 C-0.01 -0.16, -0.06 -0.82, -0.07 -0.99" stroke="#000000" stroke-width="4" fill="none"></path></g></g><mask></mask><g stroke-linecap="round"><g transform="translate(279.5051619011278 421.46427961248077) rotate(256.56897923290404 -0.029712823746194772 -0.5234955972634339)"><path d="M0 0 C-0.01 -0.17, -0.05 -0.87, -0.06 -1.05 M0 0 C-0.01 -0.17, -0.05 -0.87, -0.06 -1.05" stroke="#000000" stroke-width="4" fill="none"></path></g></g><mask></mask><g stroke-linecap="round"><g transform="translate(278.5201144752627 419.3195864487807) rotate(256.56897923290404 -0.0417265757404266 -0.3928493502866388)"><path d="M0 0 C-0.01 -0.13, -0.07 -0.65, -0.08 -0.79 M0 0 C-0.01 -0.13, -0.07 -0.65, -0.08 -0.79" stroke="#000000" stroke-width="4" fill="none"></path></g></g><mask></mask><g stroke-linecap="round"><g transform="translate(277.50377296058053 417.5475079517844) rotate(252.10771039580888 -0.042003026958184364 -0.31453965193793465)"><path d="M0 0 C-0.01 -0.1, -0.07 -0.52, -0.08 -0.63 M0 0 C-0.01 -0.1, -0.07 -0.52, -0.08 -0.63" stroke="#000000" stroke-width="4" fill="none"></path></g></g><mask></mask><g stroke-linecap="round"><g transform="translate(268.59155522387226 408.7864173489232) rotate(221.53829878627963 -0.0007725605530026769 1.3755187452227062)"><path d="M0 0 C0 0.46, 0 2.29, 0 2.75 M0 0 C0 0.46, 0 2.29, 0 2.75" stroke="#000000" stroke-width="4" fill="none"></path></g></g><mask></mask><g stroke-linecap="round"><g transform="translate(275.32969552608665 415.16187583494616) rotate(241.22857179921382 -0.036283493417528234 -0.4946597105930266)"><path d="M0 0 C-0.01 -0.16, -0.06 -0.82, -0.07 -0.99 M0 0 C-0.01 -0.16, -0.06 -0.82, -0.07 -0.99" stroke="#000000" stroke-width="4" fill="none"></path></g></g><mask></mask><g stroke-linecap="round"><g transform="translate(274.1173232123733 413.50085430306984) rotate(231.24204526522436 -0.029712823746194772 -0.5234955972634339)"><path d="M0 0 C-0.01 -0.17, -0.05 -0.87, -0.06 -1.05 M0 0 C-0.01 -0.17, -0.05 -0.87, -0.06 -1.05" stroke="#000000" stroke-width="4" fill="none"></path></g></g><mask></mask><g stroke-linecap="round"><g transform="translate(272.3822326828338 411.9624345246493) rotate(231.24204526522436 -0.0417265757404266 -0.3928493502866388)"><path d="M0 0 C-0.01 -0.13, -0.07 -0.65, -0.08 -0.79 M0 0 C-0.01 -0.13, -0.07 -0.65, -0.08 -0.79" stroke="#000000" stroke-width="4" fill="none"></path></g></g><mask></mask><g stroke-linecap="round"><g transform="translate(270.7302287858408 410.8020324451817) rotate(226.7807764281292 -0.042003026958184364 -0.31453965193793465)"><path d="M0 0 C-0.01 -0.1, -0.07 -0.52, -0.08 -0.63 M0 0 C-0.01 -0.1, -0.07 -0.52, -0.08 -0.63" stroke="#000000" stroke-width="4" fill="none"></path></g></g><mask></mask><g stroke-linecap="round"><g transform="translate(267.83715562209784 409.4907151526484) rotate(213.0882201598896 -0.036283493417528234 -0.4946597105930266)"><path d="M0 0 C-0.01 -0.16, -0.06 -0.82, -0.07 -0.99 M0 0 C-0.01 -0.16, -0.06 -0.82, -0.07 -0.99" stroke="#000000" stroke-width="4" fill="none"></path></g></g><mask></mask><g stroke-linecap="round"><g transform="translate(265.9830628383399 408.58953596719675) rotate(203.10169362590014 -0.029712823746194772 -0.5234955972634339)"><path d="M0 0 C-0.01 -0.17, -0.05 -0.87, -0.06 -1.05 M0 0 C-0.01 -0.17, -0.05 -0.87, -0.06 -1.05" stroke="#000000" stroke-width="4" fill="none"></path></g></g><mask></mask><g stroke-linecap="round"><g transform="translate(263.7606613883399 408.0424581518889) rotate(203.10169362590014 -0.0417265757404266 -0.3928493502866388)"><path d="M0 0 C-0.01 -0.13, -0.07 -0.65, -0.08 -0.79 M0 0 C-0.01 -0.13, -0.07 -0.65, -0.08 -0.79" stroke="#000000" stroke-width="4" fill="none"></path></g></g><mask></mask><g stroke-linecap="round"><g transform="translate(261.8234494079146 407.8259416179117) rotate(198.64042478880495 -0.042003026958184364 -0.31453965193793465)"><path d="M0 0 C-0.01 -0.1, -0.07 -0.52, -0.08 -0.63 M0 0 C-0.01 -0.1, -0.07 -0.52, -0.08 -0.63" stroke="#000000" stroke-width="4" fill="none"></path></g></g><mask></mask><g stroke-linecap="round"><g transform="translate(250.00600786441782 410.17249054330665) rotate(153.98290077201585 -0.0007725605530026769 1.3755187452227062)"><path d="M0 0 C0 0.46, 0 2.29, 0 2.75 M0 0 C0 0.46, 0 2.29, 0 2.75" stroke="#000000" stroke-width="4" fill="none"></path></g></g><mask></mask><g stroke-linecap="round"><g transform="translate(257.6455783436291 408.1493817693636) rotate(181.02272431868724 -0.036283493417528234 -0.4946597105930266)"><path d="M0 0 C-0.01 -0.16, -0.06 -0.82, -0.07 -0.99 M0 0 C-0.01 -0.16, -0.06 -0.82, -0.07 -0.99" stroke="#000000" stroke-width="4" fill="none"></path></g></g><mask></mask><g stroke-linecap="round"><g transform="translate(255.56748110361855 408.3674092463081) rotate(171.03619778469775 -0.029712823746194772 -0.5234955972634339)"><path d="M0 0 C-0.01 -0.17, -0.05 -0.87, -0.06 -1.05 M0 0 C-0.01 -0.17, -0.05 -0.87, -0.06 -1.05" stroke="#000000" stroke-width="4" fill="none"></path></g></g><mask></mask><g stroke-linecap="round"><g transform="translate(253.49354268550934 409.0921557444127) rotate(171.03619778469775 -0.0417265757404266 -0.3928493502866388)"><path d="M0 0 C-0.01 -0.13, -0.07 -0.65, -0.08 -0.79 M0 0 C-0.01 -0.13, -0.07 -0.65, -0.08 -0.79" stroke="#000000" stroke-width="4" fill="none"></path></g></g><mask></mask><g stroke-linecap="round"><g transform="translate(251.66055338689728 409.94552024908785) rotate(166.57492894760256 -0.042003026958184364 -0.31453965193793465)"><path d="M0 0 C-0.01 -0.1, -0.07 -0.52, -0.08 -0.63 M0 0 C-0.01 -0.1, -0.07 -0.52, -0.08 -0.63" stroke="#000000" stroke-width="4" fill="none"></path></g></g><mask></mask><g stroke-linecap="round"><g transform="translate(243.04594096134014 417.62582284160084) rotate(117.87869379283768 -0.0007725605530026769 1.3755187452227062)"><path d="M0 0 C0 0.46, 0 2.29, 0 2.75 M0 0 C0 0.46, 0 2.29, 0 2.75" stroke="#000000" stroke-width="4" fill="none"></path></g></g><mask></mask><g stroke-linecap="round"><g transform="translate(248.19626809199212 412.64487197621537) rotate(153.72222055160216 -0.036283493417528234 -0.4946597105930266)"><path d="M0 0 C-0.01 -0.16, -0.06 -0.82, -0.07 -0.99 M0 0 C-0.01 -0.16, -0.06 -0.82, -0.07 -0.99" stroke="#000000" stroke-width="4" fill="none"></path></g></g><mask></mask><g stroke-linecap="round"><g transform="translate(246.45063846552625 413.8622116426931) rotate(143.73569401761267 -0.029712823746194772 -0.5234955972634339)"><path d="M0 0 C-0.01 -0.17, -0.05 -0.87, -0.06 -1.05 M0 0 C-0.01 -0.17, -0.05 -0.87, -0.06 -1.05" stroke="#000000" stroke-width="4" fill="none"></path></g></g><mask></mask><g stroke-linecap="round"><g transform="translate(244.89431790168783 415.3074212111546) rotate(143.73569401761267 -0.0417265757404266 -0.3928493502866388)"><path d="M0 0 C-0.01 -0.13, -0.07 -0.65, -0.08 -0.79 M0 0 C-0.01 -0.13, -0.07 -0.65, -0.08 -0.79" stroke="#000000" stroke-width="4" fill="none"></path></g></g><mask></mask><g stroke-linecap="round"><g transform="translate(243.63768793629595 416.97745291551087) rotate(139.2744251805175 -0.042003026958184364 -0.31453965193793465)"><path d="M0 0 C-0.01 -0.1, -0.07 -0.52, -0.08 -0.63 M0 0 C-0.01 -0.1, -0.07 -0.52, -0.08 -0.63" stroke="#000000" stroke-width="4" fill="none"></path></g></g><mask></mask><g stroke-linecap="round"><g transform="translate(240.93504606396863 427.90754840934306) rotate(89.79680829518713 -0.0007725605530026769 1.3755187452227062)"><path d="M0 0 C0 0.46, 0 2.29, 0 2.75 M0 0 C0 0.46, 0 2.29, 0 2.75" stroke="#000000" stroke-width="4" fill="none"></path></g></g><mask></mask><g stroke-linecap="round"><g transform="translate(241.44528147618382 421.33999160201336) rotate(120.34779553664248 -0.036283493417528234 -0.4946597105930266)"><path d="M0 0 C-0.01 -0.16, -0.06 -0.82, -0.07 -0.99 M0 0 C-0.01 -0.16, -0.06 -0.82, -0.07 -0.99" stroke="#000000" stroke-width="4" fill="none"></path></g></g><mask></mask><g stroke-linecap="round"><g transform="translate(240.5746871183839 423.29990354644667) rotate(110.361269002653 -0.029712823746194772 -0.5234955972634339)"><path d="M0 0 C-0.01 -0.17, -0.05 -0.87, -0.06 -1.05 M0 0 C-0.01 -0.17, -0.05 -0.87, -0.06 -1.05" stroke="#000000" stroke-width="4" fill="none"></path></g></g><mask></mask><g stroke-linecap="round"><g transform="translate(240.31321833634246 425.30025996025483) rotate(110.361269002653 -0.0417265757404266 -0.3928493502866388)"><path d="M0 0 C-0.01 -0.13, -0.07 -0.65, -0.08 -0.79 M0 0 C-0.01 -0.13, -0.07 -0.65, -0.08 -0.79" stroke="#000000" stroke-width="4" fill="none"></path></g></g><mask></mask><g stroke-linecap="round"><g transform="translate(240.3184055339512 427.2698469395183) rotate(105.90000016555783 -0.042003026958184364 -0.31453965193793465)"><path d="M0 0 C-0.01 -0.1, -0.07 -0.52, -0.08 -0.63 M0 0 C-0.01 -0.1, -0.07 -0.52, -0.08 -0.63" stroke="#000000" stroke-width="4" fill="none"></path></g></g><mask></mask><g stroke-linecap="round"><g transform="translate(244.9300173028323 437.06824670499935) rotate(60.24804481903677 -0.0007725605530026769 1.3755187452227062)"><path d="M0 0 C0 0.46, 0 2.29, 0 2.75 M0 0 C0 0.46, 0 2.29, 0 2.75" stroke="#000000" stroke-width="4" fill="none"></path></g></g><mask></mask><g stroke-linecap="round"><g transform="translate(240.95497266272338 431.94877962127896) rotate(87.57823008558077 -0.036283493417528234 -0.4946597105930266)"><path d="M0 0 C-0.01 -0.16, -0.06 -0.82, -0.07 -0.99 M0 0 C-0.01 -0.16, -0.06 -0.82, -0.07 -0.99" stroke="#000000" stroke-width="4" fill="none"></path></g></g><mask></mask><g stroke-linecap="round"><g transform="translate(241.42377030815288 434.01884808718285) rotate(77.59170355159128 -0.029712823746194772 -0.5234955972634339)"><path d="M0 0 C-0.01 -0.17, -0.05 -0.87, -0.06 -1.05 M0 0 C-0.01 -0.17, -0.05 -0.87, -0.06 -1.05" stroke="#000000" stroke-width="4" fill="none"></path></g></g><mask></mask><g stroke-linecap="round"><g transform="translate(242.31617358184076 435.879378181491) rotate(77.59170355159128 -0.0417265757404266 -0.3928493502866388)"><path d="M0 0 C-0.01 -0.13, -0.07 -0.65, -0.08 -0.79 M0 0 C-0.01 -0.13, -0.07 -0.65, -0.08 -0.79" stroke="#000000" stroke-width="4" fill="none"></path></g></g><mask></mask><g stroke-linecap="round"><g transform="translate(243.33548129640872 437.52559206442925) rotate(73.1304347144961 -0.042003026958184364 -0.31453965193793465)"><path d="M0 0 C-0.01 -0.1, -0.07 -0.52, -0.08 -0.63 M0 0 C-0.01 -0.1, -0.07 -0.52, -0.08 -0.63" stroke="#000000" stroke-width="4" fill="none"></path></g></g><mask></mask><g stroke-linecap="round"><g transform="translate(251.96935480165445 442.96140243949503) rotate(42.56102310496686 -0.0007725605530026769 1.3755187452227062)"><path d="M0 0 C0 0.46, 0 2.29, 0 2.75 M0 0 C0 0.46, 0 2.29, 0 2.75" stroke="#000000" stroke-width="4" fill="none"></path></g></g><mask></mask><g stroke-linecap="round"><g transform="translate(245.44195009842252 440.3634988682627) rotate(62.251296117901056 -0.036283493417528234 -0.4946597105930266)"><path d="M0 0 C-0.01 -0.16, -0.06 -0.82, -0.07 -0.99 M0 0 C-0.01 -0.16, -0.06 -0.82, -0.07 -0.99" stroke="#000000" stroke-width="4" fill="none"></path></g></g><mask></mask><g stroke-linecap="round"><g transform="translate(246.58058819422473 442.0800787154152) rotate(52.26476958391158 -0.029712823746194772 -0.5234955972634339)"><path d="M0 0 C-0.01 -0.17, -0.05 -0.87, -0.06 -1.05 M0 0 C-0.01 -0.17, -0.05 -0.87, -0.06 -1.05" stroke="#000000" stroke-width="4" fill="none"></path></g></g><mask></mask><g stroke-linecap="round"><g transform="translate(248.32989958554072 443.4167797726857) rotate(52.26476958391158 -0.0417265757404266 -0.3928493502866388)"><path d="M0 0 C-0.01 -0.13, -0.07 -0.65, -0.08 -0.79 M0 0 C-0.01 -0.13, -0.07 -0.65, -0.08 -0.79" stroke="#000000" stroke-width="4" fill="none"></path></g></g><mask></mask><g stroke-linecap="round"><g transform="translate(249.96097808266813 444.33441233089025) rotate(47.803500746816404 -0.042003026958184364 -0.31453965193793465)"><path d="M0 0 C-0.01 -0.1, -0.07 -0.52, -0.08 -0.63 M0 0 C-0.01 -0.1, -0.07 -0.52, -0.08 -0.63" stroke="#000000" stroke-width="4" fill="none"></path></g></g><mask></mask><g stroke-linecap="round"><g transform="translate(252.7760534262037 446.1007286899819) rotate(34.110944478576826 -0.036283493417528234 -0.4946597105930266)"><path d="M0 0 C-0.01 -0.16, -0.06 -0.82, -0.07 -0.99 M0 0 C-0.01 -0.16, -0.06 -0.82, -0.07 -0.99" stroke="#000000" stroke-width="4" fill="none"></path></g></g><mask></mask><g stroke-linecap="round"><g transform="translate(254.60650374037846 446.97041748870436) rotate(24.124417944587346 -0.029712823746194772 -0.5234955972634339)"><path d="M0 0 C-0.01 -0.17, -0.05 -0.87, -0.06 -1.05 M0 0 C-0.01 -0.17, -0.05 -0.87, -0.06 -1.05" stroke="#000000" stroke-width="4" fill="none"></path></g></g><mask></mask><g stroke-linecap="round"><g transform="translate(256.73088073696334 447.3384314117415) rotate(24.124417944587346 -0.0417265757404266 -0.3928493502866388)"><path d="M0 0 C-0.01 -0.13, -0.07 -0.65, -0.08 -0.79 M0 0 C-0.01 -0.13, -0.07 -0.65, -0.08 -0.79" stroke="#000000" stroke-width="4" fill="none"></path></g></g><mask></mask><g stroke-linecap="round"><g transform="translate(258.8627919133486 447.54323805495477) rotate(19.66314910749217 -0.042003026958184364 -0.31453965193793465)"><path d="M0 0 C-0.01 -0.1, -0.07 -0.52, -0.08 -0.63 M0 0 C-0.01 -0.1, -0.07 -0.52, -0.08 -0.63" stroke="#000000" stroke-width="4" fill="none"></path></g></g><mask></mask><g stroke-linecap="round" transform="translate(594.1333312988281 397.8333282470703) rotate(0 22.166671752929688 22.166671752929688)"><path d="M44.33 22.17 C44.33 23.45, 44.22 24.75, 44 26.02 C43.77 27.28, 43.44 28.54, 43 29.75 C42.56 30.95, 42.01 32.14, 41.36 33.25 C40.72 34.36, 39.97 35.43, 39.15 36.42 C38.32 37.4, 37.4 38.32, 36.42 39.15 C35.43 39.97, 34.36 40.72, 33.25 41.36 C32.14 42.01, 30.95 42.56, 29.75 43 C28.54 43.44, 27.28 43.77, 26.02 44 C24.75 44.22, 23.45 44.33, 22.17 44.33 C20.88 44.33, 19.58 44.22, 18.32 44 C17.05 43.77, 15.79 43.44, 14.59 43 C13.38 42.56, 12.19 42.01, 11.08 41.36 C9.97 40.72, 8.9 39.97, 7.92 39.15 C6.94 38.32, 6.01 37.4, 5.19 36.42 C4.36 35.43, 3.61 34.36, 2.97 33.25 C2.33 32.14, 1.78 30.95, 1.34 29.75 C0.9 28.54, 0.56 27.28, 0.34 26.02 C0.11 24.75, 0 23.45, 0 22.17 C0 20.88, 0.11 19.58, 0.34 18.32 C0.56 17.05, 0.9 15.79, 1.34 14.59 C1.78 13.38, 2.33 12.19, 2.97 11.08 C3.61 9.97, 4.36 8.9, 5.19 7.92 C6.01 6.94, 6.94 6.01, 7.92 5.19 C8.9 4.36, 9.97 3.61, 11.08 2.97 C12.19 2.33, 13.38 1.78, 14.59 1.34 C15.79 0.9, 17.05 0.56, 18.32 0.34 C19.58 0.11, 20.88 0, 22.17 0 C23.45 0, 24.75 0.11, 26.02 0.34 C27.28 0.56, 28.54 0.9, 29.75 1.34 C30.95 1.78, 32.14 2.33, 33.25 2.97 C34.36 3.61, 35.43 4.36, 36.42 5.19 C37.4 6.01, 38.32 6.94, 39.15 7.92 C39.97 8.9, 40.72 9.97, 41.36 11.08 C42.01 12.19, 42.56 13.38, 43 14.59 C43.44 15.79, 43.77 17.05, 44 18.32 C44.22 19.58, 44.28 21.53, 44.33 22.17 C44.39 22.81, 44.39 21.53, 44.33 22.17" stroke="none" stroke-width="0" fill="#868e96"></path><path d="M44.33 22.17 C44.33 23.45, 44.22 24.75, 44 26.02 C43.77 27.28, 43.44 28.54, 43 29.75 C42.56 30.95, 42.01 32.14, 41.36 33.25 C40.72 34.36, 39.97 35.43, 39.15 36.42 C38.32 37.4, 37.4 38.32, 36.42 39.15 C35.43 39.97, 34.36 40.72, 33.25 41.36 C32.14 42.01, 30.95 42.56, 29.75 43 C28.54 43.44, 27.28 43.77, 26.02 44 C24.75 44.22, 23.45 44.33, 22.17 44.33 C20.88 44.33, 19.58 44.22, 18.32 44 C17.05 43.77, 15.79 43.44, 14.59 43 C13.38 42.56, 12.19 42.01, 11.08 41.36 C9.97 40.72, 8.9 39.97, 7.92 39.15 C6.94 38.32, 6.01 37.4, 5.19 36.42 C4.36 35.43, 3.61 34.36, 2.97 33.25 C2.33 32.14, 1.78 30.95, 1.34 29.75 C0.9 28.54, 0.56 27.28, 0.34 26.02 C0.11 24.75, 0 23.45, 0 22.17 C0 20.88, 0.11 19.58, 0.34 18.32 C0.56 17.05, 0.9 15.79, 1.34 14.59 C1.78 13.38, 2.33 12.19, 2.97 11.08 C3.61 9.97, 4.36 8.9, 5.19 7.92 C6.01 6.94, 6.94 6.01, 7.92 5.19 C8.9 4.36, 9.97 3.61, 11.08 2.97 C12.19 2.33, 13.38 1.78, 14.59 1.34 C15.79 0.9, 17.05 0.56, 18.32 0.34 C19.58 0.11, 20.88 0, 22.17 0 C23.45 0, 24.75 0.11, 26.02 0.34 C27.28 0.56, 28.54 0.9, 29.75 1.34 C30.95 1.78, 32.14 2.33, 33.25 2.97 C34.36 3.61, 35.43 4.36, 36.42 5.19 C37.4 6.01, 38.32 6.94, 39.15 7.92 C39.97 8.9, 40.72 9.97, 41.36 11.08 C42.01 12.19, 42.56 13.38, 43 14.59 C43.44 15.79, 43.77 17.05, 44 18.32 C44.22 19.58, 44.28 21.53, 44.33 22.17 C44.39 22.81, 44.39 21.53, 44.33 22.17" stroke="#000000" stroke-width="4" fill="none"></path></g><g stroke-linecap="round" transform="translate(595.7641093879114 399.28291337882774) rotate(0 20.717080400200302 20.717080400200302)"><path d="M41.43 20.72 C41.43 21.92, 41.33 23.13, 41.12 24.31 C40.91 25.5, 40.59 26.68, 40.18 27.8 C39.77 28.93, 39.26 30.04, 38.66 31.08 C38.06 32.11, 37.36 33.12, 36.59 34.03 C35.82 34.95, 34.95 35.82, 34.03 36.59 C33.12 37.36, 32.11 38.06, 31.08 38.66 C30.04 39.26, 28.93 39.77, 27.8 40.18 C26.68 40.59, 25.5 40.91, 24.31 41.12 C23.13 41.33, 21.92 41.43, 20.72 41.43 C19.52 41.43, 18.3 41.33, 17.12 41.12 C15.94 40.91, 14.76 40.59, 13.63 40.18 C12.5 39.77, 11.4 39.26, 10.36 38.66 C9.32 38.06, 8.32 37.36, 7.4 36.59 C6.48 35.82, 5.62 34.95, 4.85 34.03 C4.08 33.12, 3.38 32.11, 2.78 31.08 C2.18 30.04, 1.66 28.93, 1.25 27.8 C0.84 26.68, 0.52 25.5, 0.31 24.31 C0.11 23.13, 0 21.92, 0 20.72 C0 19.52, 0.11 18.3, 0.31 17.12 C0.52 15.94, 0.84 14.76, 1.25 13.63 C1.66 12.5, 2.18 11.4, 2.78 10.36 C3.38 9.32, 4.08 8.32, 4.85 7.4 C5.62 6.48, 6.48 5.62, 7.4 4.85 C8.32 4.08, 9.32 3.38, 10.36 2.78 C11.4 2.18, 12.5 1.66, 13.63 1.25 C14.76 0.84, 15.94 0.52, 17.12 0.31 C18.3 0.11, 19.52 0, 20.72 0 C21.92 0, 23.13 0.11, 24.31 0.31 C25.5 0.52, 26.68 0.84, 27.8 1.25 C28.93 1.66, 30.04 2.18, 31.08 2.78 C32.11 3.38, 33.12 4.08, 34.03 4.85 C34.95 5.62, 35.82 6.48, 36.59 7.4 C37.36 8.32, 38.06 9.32, 38.66 10.36 C39.26 11.4, 39.77 12.5, 40.18 13.63 C40.59 14.76, 40.91 15.94, 41.12 17.12 C41.33 18.3, 41.38 20.12, 41.43 20.72 C41.49 21.32, 41.49 20.12, 41.43 20.72" stroke="none" stroke-width="0" fill="#fff"></path><path d="M41.43 20.72 C41.43 21.92, 41.33 23.13, 41.12 24.31 C40.91 25.5, 40.59 26.68, 40.18 27.8 C39.77 28.93, 39.26 30.04, 38.66 31.08 C38.06 32.11, 37.36 33.12, 36.59 34.03 C35.82 34.95, 34.95 35.82, 34.03 36.59 C33.12 37.36, 32.11 38.06, 31.08 38.66 C30.04 39.26, 28.93 39.77, 27.8 40.18 C26.68 40.59, 25.5 40.91, 24.31 41.12 C23.13 41.33, 21.92 41.43, 20.72 41.43 C19.52 41.43, 18.3 41.33, 17.12 41.12 C15.94 40.91, 14.76 40.59, 13.63 40.18 C12.5 39.77, 11.4 39.26, 10.36 38.66 C9.32 38.06, 8.32 37.36, 7.4 36.59 C6.48 35.82, 5.62 34.95, 4.85 34.03 C4.08 33.12, 3.38 32.11, 2.78 31.08 C2.18 30.04, 1.66 28.93, 1.25 27.8 C0.84 26.68, 0.52 25.5, 0.31 24.31 C0.11 23.13, 0 21.92, 0 20.72 C0 19.52, 0.11 18.3, 0.31 17.12 C0.52 15.94, 0.84 14.76, 1.25 13.63 C1.66 12.5, 2.18 11.4, 2.78 10.36 C3.38 9.32, 4.08 8.32, 4.85 7.4 C5.62 6.48, 6.48 5.62, 7.4 4.85 C8.32 4.08, 9.32 3.38, 10.36 2.78 C11.4 2.18, 12.5 1.66, 13.63 1.25 C14.76 0.84, 15.94 0.52, 17.12 0.31 C18.3 0.11, 19.52 0, 20.72 0 C21.92 0, 23.13 0.11, 24.31 0.31 C25.5 0.52, 26.68 0.84, 27.8 1.25 C28.93 1.66, 30.04 2.18, 31.08 2.78 C32.11 3.38, 33.12 4.08, 34.03 4.85 C34.95 5.62, 35.82 6.48, 36.59 7.4 C37.36 8.32, 38.06 9.32, 38.66 10.36 C39.26 11.4, 39.77 12.5, 40.18 13.63 C40.59 14.76, 40.91 15.94, 41.12 17.12 C41.33 18.3, 41.38 20.12, 41.43 20.72 C41.49 21.32, 41.49 20.12, 41.43 20.72" stroke="#000000" stroke-width="4" fill="none"></path></g><g stroke-linecap="round"><g transform="translate(616.3196447080882 408.4543208169181) rotate(0 0.02394789054909552 7.034503816913144)"><path d="M0 0 C0.01 3.68, 0.03 7.36, 0.05 14.07 M0 0 C0.01 4.16, 0.03 8.31, 0.05 14.07" stroke="#000000" stroke-width="4" fill="none"></path></g></g><mask></mask><g stroke-linecap="round"><g transform="translate(620.6434636728761 420.1447423719957) rotate(113.07234683558902 0.22757633731407623 4.105938853903723)"><path d="M0 0 C0.14 2.55, 0.28 5.11, 0.46 8.21 M0 0 C0.15 2.74, 0.3 5.47, 0.46 8.21" stroke="#000000" stroke-width="4" fill="none"></path></g></g><mask></mask><g stroke-linecap="round"><g transform="translate(617.5606914249097 437.5844166382906) rotate(359.8683043500925 -0.0007725605530026769 1.3755187452227062)"><path d="M0 0 C0 0.46, 0 2.29, 0 2.75 M0 0 C0 0.46, 0 2.29, 0 2.75" stroke="#000000" stroke-width="4" fill="none"></path></g></g><mask></mask><g stroke-linecap="round"><g transform="translate(616.4234816141284 399.44983063813766) rotate(179.00284108061678 -0.0007725605530026769 1.3755187452227062)"><path d="M0 0 C0 0.46, 0 2.29, 0 2.75 M0 0 C0 0.46, 0 2.29, 0 2.75" stroke="#000000" stroke-width="4" fill="none"></path></g></g><mask></mask><g stroke-linecap="round"><g transform="translate(627.4352462757557 434.09776568873644) rotate(332.96017645332864 -0.0007725605530026769 1.3755187452227062)"><path d="M0 0 C0 0.46, 0 2.29, 0 2.75 M0 0 C0 0.46, 0 2.29, 0 2.75" stroke="#000000" stroke-width="4" fill="none"></path></g></g><mask></mask><g stroke-linecap="round"><g transform="translate(619.9626249630059 439.9953882820246) rotate(0 -0.036283493417556656 -0.4946597105930266)"><path d="M0 0 C-0.01 -0.16, -0.06 -0.82, -0.07 -0.99 M0 0 C-0.01 -0.16, -0.06 -0.82, -0.07 -0.99" stroke="#000000" stroke-width="4" fill="none"></path></g></g><mask></mask><g stroke-linecap="round"><g transform="translate(622.0274905514418 439.7085333806292) rotate(350.0134734660105 -0.029712823746194772 -0.5234955972634339)"><path d="M0 0 C-0.01 -0.17, -0.05 -0.87, -0.06 -1.05 M0 0 C-0.01 -0.17, -0.05 -0.87, -0.06 -1.05" stroke="#000000" stroke-width="4" fill="none"></path></g></g><mask></mask><g stroke-linecap="round"><g transform="translate(624.1258914480583 438.7861638822387) rotate(350.0134734660105 -0.0417265757404266 -0.3928493502866388)"><path d="M0 0 C-0.01 -0.13, -0.07 -0.65, -0.08 -0.79 M0 0 C-0.01 -0.13, -0.07 -0.65, -0.08 -0.79" stroke="#000000" stroke-width="4" fill="none"></path></g></g><mask></mask><g stroke-linecap="round"><g transform="translate(625.8379728708239 437.77433163717944) rotate(345.5522046289154 -0.042003026958184364 -0.31453965193793465)"><path d="M0 0 C-0.01 -0.1, -0.07 -0.52, -0.08 -0.63 M0 0 C-0.01 -0.1, -0.07 -0.52, -0.08 -0.63" stroke="#000000" stroke-width="4" fill="none"></path></g></g><mask></mask><g stroke-linecap="round"><g transform="translate(634.2084089347925 426.45150361624474) rotate(296.85596947415047 -0.0007725605530026769 1.3755187452227062)"><path d="M0 0 C0 0.46, 0 2.29, 0 2.75 M0 0 C0 0.46, 0 2.29, 0 2.75" stroke="#000000" stroke-width="4" fill="none"></path></g></g><mask></mask><g stroke-linecap="round"><g transform="translate(629.3905131676175 435.39763186681944) rotate(332.6994962329149 -0.036283493417556656 -0.4946597105930266)"><path d="M0 0 C-0.01 -0.16, -0.06 -0.82, -0.07 -0.99 M0 0 C-0.01 -0.16, -0.06 -0.82, -0.07 -0.99" stroke="#000000" stroke-width="4" fill="none"></path></g></g><mask></mask><g stroke-linecap="round"><g transform="translate(631.0782843002164 434.2158875570468) rotate(322.71296969892546 -0.029712823746194772 -0.5234955972634339)"><path d="M0 0 C-0.01 -0.17, -0.05 -0.87, -0.06 -1.05 M0 0 C-0.01 -0.17, -0.05 -0.87, -0.06 -1.05" stroke="#000000" stroke-width="4" fill="none"></path></g></g><mask></mask><g stroke-linecap="round"><g transform="translate(632.567189689049 432.4243536514183) rotate(322.71296969892546 -0.0417265757404266 -0.3928493502866388)"><path d="M0 0 C-0.01 -0.13, -0.07 -0.65, -0.08 -0.79 M0 0 C-0.01 -0.13, -0.07 -0.65, -0.08 -0.79" stroke="#000000" stroke-width="4" fill="none"></path></g></g><mask></mask><g stroke-linecap="round"><g transform="translate(633.7031404665955 430.7139073306804) rotate(318.2517008618303 -0.042003026958184364 -0.31453965193793465)"><path d="M0 0 C-0.01 -0.1, -0.07 -0.52, -0.08 -0.63 M0 0 C-0.01 -0.1, -0.07 -0.52, -0.08 -0.63" stroke="#000000" stroke-width="4" fill="none"></path></g></g><mask></mask><g stroke-linecap="round"><g transform="translate(635.7444453070168 416.10954918121604) rotate(269.4984037203515 -0.0007725605530026769 1.3755187452227062)"><path d="M0 0 C0 0.46, 0 2.29, 0 2.75 M0 0 C0 0.46, 0 2.29, 0 2.75" stroke="#000000" stroke-width="4" fill="none"></path></g></g><mask></mask><g stroke-linecap="round"><g transform="translate(635.4268054045176 426.437205014754) rotate(300.04939096180686 -0.036283493417556656 -0.4946597105930266)"><path d="M0 0 C-0.01 -0.16, -0.06 -0.82, -0.07 -0.99 M0 0 C-0.01 -0.16, -0.06 -0.82, -0.07 -0.99" stroke="#000000" stroke-width="4" fill="none"></path></g></g><mask></mask><g stroke-linecap="round"><g transform="translate(636.2278932547468 424.55756274213286) rotate(290.0628644278174 -0.029712823746194772 -0.5234955972634339)"><path d="M0 0 C-0.01 -0.17, -0.05 -0.87, -0.06 -1.05 M0 0 C-0.01 -0.17, -0.05 -0.87, -0.06 -1.05" stroke="#000000" stroke-width="4" fill="none"></path></g></g><mask></mask><g stroke-linecap="round"><g transform="translate(636.5112481657368 422.2196187251534) rotate(290.0628644278174 -0.0417265757404266 -0.3928493502866388)"><path d="M0 0 C-0.01 -0.13, -0.07 -0.65, -0.08 -0.79 M0 0 C-0.01 -0.13, -0.07 -0.65, -0.08 -0.79" stroke="#000000" stroke-width="4" fill="none"></path></g></g><mask></mask><g stroke-linecap="round"><g transform="translate(636.5970736318924 420.1479871547814) rotate(285.6015955907222 -0.042003026958184364 -0.31453965193793465)"><path d="M0 0 C-0.01 -0.1, -0.07 -0.52, -0.08 -0.63 M0 0 C-0.01 -0.1, -0.07 -0.52, -0.08 -0.63" stroke="#000000" stroke-width="4" fill="none"></path></g></g><mask></mask><g stroke-linecap="round"><g transform="translate(632.1207454061882 407.247098348059) rotate(239.22532050034954 -0.0007725605530026769 1.3755187452227062)"><path d="M0 0 C0 0.46, 0 2.29, 0 2.75 M0 0 C0 0.46, 0 2.29, 0 2.75" stroke="#000000" stroke-width="4" fill="none"></path></g></g><mask></mask><g stroke-linecap="round"><g transform="translate(636.1126566614937 415.9965403406544) rotate(266.55550576689353 -0.036283493417556656 -0.4946597105930266)"><path d="M0 0 C-0.01 -0.16, -0.06 -0.82, -0.07 -0.99 M0 0 C-0.01 -0.16, -0.06 -0.82, -0.07 -0.99" stroke="#000000" stroke-width="4" fill="none"></path></g></g><mask></mask><g stroke-linecap="round"><g transform="translate(635.7551619011278 413.9642796124808) rotate(256.56897923290404 -0.029712823746194772 -0.5234955972634339)"><path d="M0 0 C-0.01 -0.17, -0.05 -0.87, -0.06 -1.05 M0 0 C-0.01 -0.17, -0.05 -0.87, -0.06 -1.05" stroke="#000000" stroke-width="4" fill="none"></path></g></g><mask></mask><g stroke-linecap="round"><g transform="translate(634.7701144752627 411.8195864487807) rotate(256.56897923290404 -0.0417265757404266 -0.3928493502866388)"><path d="M0 0 C-0.01 -0.13, -0.07 -0.65, -0.08 -0.79 M0 0 C-0.01 -0.13, -0.07 -0.65, -0.08 -0.79" stroke="#000000" stroke-width="4" fill="none"></path></g></g><mask></mask><g stroke-linecap="round"><g transform="translate(633.7537729605806 410.0475079517844) rotate(252.10771039580888 -0.042003026958184364 -0.31453965193793465)"><path d="M0 0 C-0.01 -0.1, -0.07 -0.52, -0.08 -0.63 M0 0 C-0.01 -0.1, -0.07 -0.52, -0.08 -0.63" stroke="#000000" stroke-width="4" fill="none"></path></g></g><mask></mask><g stroke-linecap="round"><g transform="translate(624.8415552238723 401.2864173489231) rotate(221.53829878627963 -0.0007725605530026769 1.3755187452227062)"><path d="M0 0 C0 0.46, 0 2.29, 0 2.75 M0 0 C0 0.46, 0 2.29, 0 2.75" stroke="#000000" stroke-width="4" fill="none"></path></g></g><mask></mask><g stroke-linecap="round"><g transform="translate(631.5796955260867 407.66187583494616) rotate(241.22857179921382 -0.036283493417556656 -0.4946597105930266)"><path d="M0 0 C-0.01 -0.16, -0.06 -0.82, -0.07 -0.99 M0 0 C-0.01 -0.16, -0.06 -0.82, -0.07 -0.99" stroke="#000000" stroke-width="4" fill="none"></path></g></g><mask></mask><g stroke-linecap="round"><g transform="translate(630.3673232123733 406.0008543030699) rotate(231.24204526522436 -0.029712823746194772 -0.5234955972634339)"><path d="M0 0 C-0.01 -0.17, -0.05 -0.87, -0.06 -1.05 M0 0 C-0.01 -0.17, -0.05 -0.87, -0.06 -1.05" stroke="#000000" stroke-width="4" fill="none"></path></g></g><mask></mask><g stroke-linecap="round"><g transform="translate(628.6322326828338 404.4624345246493) rotate(231.24204526522436 -0.0417265757404266 -0.3928493502866388)"><path d="M0 0 C-0.01 -0.13, -0.07 -0.65, -0.08 -0.79 M0 0 C-0.01 -0.13, -0.07 -0.65, -0.08 -0.79" stroke="#000000" stroke-width="4" fill="none"></path></g></g><mask></mask><g stroke-linecap="round"><g transform="translate(626.9802287858408 403.3020324451817) rotate(226.7807764281292 -0.042003026958184364 -0.31453965193793465)"><path d="M0 0 C-0.01 -0.1, -0.07 -0.52, -0.08 -0.63 M0 0 C-0.01 -0.1, -0.07 -0.52, -0.08 -0.63" stroke="#000000" stroke-width="4" fill="none"></path></g></g><mask></mask><g stroke-linecap="round"><g transform="translate(624.0871556220978 401.99071515264836) rotate(213.0882201598896 -0.036283493417556656 -0.4946597105930266)"><path d="M0 0 C-0.01 -0.16, -0.06 -0.82, -0.07 -0.99 M0 0 C-0.01 -0.16, -0.06 -0.82, -0.07 -0.99" stroke="#000000" stroke-width="4" fill="none"></path></g></g><mask></mask><g stroke-linecap="round"><g transform="translate(622.23306283834 401.08953596719675) rotate(203.10169362590014 -0.029712823746194772 -0.5234955972634339)"><path d="M0 0 C-0.01 -0.17, -0.05 -0.87, -0.06 -1.05 M0 0 C-0.01 -0.17, -0.05 -0.87, -0.06 -1.05" stroke="#000000" stroke-width="4" fill="none"></path></g></g><mask></mask><g stroke-linecap="round"><g transform="translate(620.0106613883399 400.5424581518889) rotate(203.10169362590014 -0.0417265757404266 -0.3928493502866388)"><path d="M0 0 C-0.01 -0.13, -0.07 -0.65, -0.08 -0.79 M0 0 C-0.01 -0.13, -0.07 -0.65, -0.08 -0.79" stroke="#000000" stroke-width="4" fill="none"></path></g></g><mask></mask><g stroke-linecap="round"><g transform="translate(618.0734494079146 400.32594161791167) rotate(198.64042478880495 -0.042003026958184364 -0.31453965193793465)"><path d="M0 0 C-0.01 -0.1, -0.07 -0.52, -0.08 -0.63 M0 0 C-0.01 -0.1, -0.07 -0.52, -0.08 -0.63" stroke="#000000" stroke-width="4" fill="none"></path></g></g><mask></mask><g stroke-linecap="round"><g transform="translate(606.2560078644178 402.6724905433066) rotate(153.98290077201585 -0.0007725605530026769 1.3755187452227062)"><path d="M0 0 C0 0.46, 0 2.29, 0 2.75 M0 0 C0 0.46, 0 2.29, 0 2.75" stroke="#000000" stroke-width="4" fill="none"></path></g></g><mask></mask><g stroke-linecap="round"><g transform="translate(613.895578343629 400.6493817693636) rotate(181.02272431868724 -0.036283493417556656 -0.4946597105930266)"><path d="M0 0 C-0.01 -0.16, -0.06 -0.82, -0.07 -0.99 M0 0 C-0.01 -0.16, -0.06 -0.82, -0.07 -0.99" stroke="#000000" stroke-width="4" fill="none"></path></g></g><mask></mask><g stroke-linecap="round"><g transform="translate(611.8174811036185 400.86740924630817) rotate(171.03619778469775 -0.029712823746194772 -0.5234955972634339)"><path d="M0 0 C-0.01 -0.17, -0.05 -0.87, -0.06 -1.05 M0 0 C-0.01 -0.17, -0.05 -0.87, -0.06 -1.05" stroke="#000000" stroke-width="4" fill="none"></path></g></g><mask></mask><g stroke-linecap="round"><g transform="translate(609.7435426855093 401.5921557444127) rotate(171.03619778469775 -0.0417265757404266 -0.3928493502866388)"><path d="M0 0 C-0.01 -0.13, -0.07 -0.65, -0.08 -0.79 M0 0 C-0.01 -0.13, -0.07 -0.65, -0.08 -0.79" stroke="#000000" stroke-width="4" fill="none"></path></g></g><mask></mask><g stroke-linecap="round"><g transform="translate(607.9105533868973 402.44552024908785) rotate(166.57492894760256 -0.042003026958184364 -0.31453965193793465)"><path d="M0 0 C-0.01 -0.1, -0.07 -0.52, -0.08 -0.63 M0 0 C-0.01 -0.1, -0.07 -0.52, -0.08 -0.63" stroke="#000000" stroke-width="4" fill="none"></path></g></g><mask></mask><g stroke-linecap="round"><g transform="translate(599.2959409613402 410.1258228416009) rotate(117.87869379283768 -0.0007725605530026769 1.3755187452227062)"><path d="M0 0 C0 0.46, 0 2.29, 0 2.75 M0 0 C0 0.46, 0 2.29, 0 2.75" stroke="#000000" stroke-width="4" fill="none"></path></g></g><mask></mask><g stroke-linecap="round"><g transform="translate(604.4462680919921 405.1448719762154) rotate(153.72222055160216 -0.036283493417556656 -0.4946597105930266)"><path d="M0 0 C-0.01 -0.16, -0.06 -0.82, -0.07 -0.99 M0 0 C-0.01 -0.16, -0.06 -0.82, -0.07 -0.99" stroke="#000000" stroke-width="4" fill="none"></path></g></g><mask></mask><g stroke-linecap="round"><g transform="translate(602.7006384655263 406.3622116426932) rotate(143.73569401761267 -0.029712823746194772 -0.5234955972634339)"><path d="M0 0 C-0.01 -0.17, -0.05 -0.87, -0.06 -1.05 M0 0 C-0.01 -0.17, -0.05 -0.87, -0.06 -1.05" stroke="#000000" stroke-width="4" fill="none"></path></g></g><mask></mask><g stroke-linecap="round"><g transform="translate(601.1443179016878 407.80742121115463) rotate(143.73569401761267 -0.0417265757404266 -0.3928493502866388)"><path d="M0 0 C-0.01 -0.13, -0.07 -0.65, -0.08 -0.79 M0 0 C-0.01 -0.13, -0.07 -0.65, -0.08 -0.79" stroke="#000000" stroke-width="4" fill="none"></path></g></g><mask></mask><g stroke-linecap="round"><g transform="translate(599.887687936296 409.47745291551087) rotate(139.2744251805175 -0.042003026958184364 -0.31453965193793465)"><path d="M0 0 C-0.01 -0.1, -0.07 -0.52, -0.08 -0.63 M0 0 C-0.01 -0.1, -0.07 -0.52, -0.08 -0.63" stroke="#000000" stroke-width="4" fill="none"></path></g></g><mask></mask><g stroke-linecap="round"><g transform="translate(597.1850460639687 420.407548409343) rotate(89.79680829518713 -0.0007725605530026769 1.3755187452227062)"><path d="M0 0 C0 0.46, 0 2.29, 0 2.75 M0 0 C0 0.46, 0 2.29, 0 2.75" stroke="#000000" stroke-width="4" fill="none"></path></g></g><mask></mask><g stroke-linecap="round"><g transform="translate(597.6952814761838 413.83999160201336) rotate(120.34779553664248 -0.036283493417556656 -0.4946597105930266)"><path d="M0 0 C-0.01 -0.16, -0.06 -0.82, -0.07 -0.99 M0 0 C-0.01 -0.16, -0.06 -0.82, -0.07 -0.99" stroke="#000000" stroke-width="4" fill="none"></path></g></g><mask></mask><g stroke-linecap="round"><g transform="translate(596.824687118384 415.79990354644667) rotate(110.361269002653 -0.029712823746194772 -0.5234955972634339)"><path d="M0 0 C-0.01 -0.17, -0.05 -0.87, -0.06 -1.05 M0 0 C-0.01 -0.17, -0.05 -0.87, -0.06 -1.05" stroke="#000000" stroke-width="4" fill="none"></path></g></g><mask></mask><g stroke-linecap="round"><g transform="translate(596.5632183363425 417.80025996025483) rotate(110.361269002653 -0.0417265757404266 -0.3928493502866388)"><path d="M0 0 C-0.01 -0.13, -0.07 -0.65, -0.08 -0.79 M0 0 C-0.01 -0.13, -0.07 -0.65, -0.08 -0.79" stroke="#000000" stroke-width="4" fill="none"></path></g></g><mask></mask><g stroke-linecap="round"><g transform="translate(596.5684055339511 419.7698469395183) rotate(105.90000016555783 -0.042003026958184364 -0.31453965193793465)"><path d="M0 0 C-0.01 -0.1, -0.07 -0.52, -0.08 -0.63 M0 0 C-0.01 -0.1, -0.07 -0.52, -0.08 -0.63" stroke="#000000" stroke-width="4" fill="none"></path></g></g><mask></mask><g stroke-linecap="round"><g transform="translate(601.1800173028323 429.5682467049994) rotate(60.24804481903677 -0.0007725605530026769 1.3755187452227062)"><path d="M0 0 C0 0.46, 0 2.29, 0 2.75 M0 0 C0 0.46, 0 2.29, 0 2.75" stroke="#000000" stroke-width="4" fill="none"></path></g></g><mask></mask><g stroke-linecap="round"><g transform="translate(597.2049726627233 424.44877962127896) rotate(87.57823008558077 -0.036283493417556656 -0.4946597105930266)"><path d="M0 0 C-0.01 -0.16, -0.06 -0.82, -0.07 -0.99 M0 0 C-0.01 -0.16, -0.06 -0.82, -0.07 -0.99" stroke="#000000" stroke-width="4" fill="none"></path></g></g><mask></mask><g stroke-linecap="round"><g transform="translate(597.6737703081528 426.51884808718285) rotate(77.59170355159128 -0.029712823746194772 -0.5234955972634339)"><path d="M0 0 C-0.01 -0.17, -0.05 -0.87, -0.06 -1.05 M0 0 C-0.01 -0.17, -0.05 -0.87, -0.06 -1.05" stroke="#000000" stroke-width="4" fill="none"></path></g></g><mask></mask><g stroke-linecap="round"><g transform="translate(598.5661735818408 428.379378181491) rotate(77.59170355159128 -0.0417265757404266 -0.3928493502866388)"><path d="M0 0 C-0.01 -0.13, -0.07 -0.65, -0.08 -0.79 M0 0 C-0.01 -0.13, -0.07 -0.65, -0.08 -0.79" stroke="#000000" stroke-width="4" fill="none"></path></g></g><mask></mask><g stroke-linecap="round"><g transform="translate(599.5854812964087 430.02559206442925) rotate(73.1304347144961 -0.042003026958184364 -0.31453965193793465)"><path d="M0 0 C-0.01 -0.1, -0.07 -0.52, -0.08 -0.63 M0 0 C-0.01 -0.1, -0.07 -0.52, -0.08 -0.63" stroke="#000000" stroke-width="4" fill="none"></path></g></g><mask></mask><g stroke-linecap="round"><g transform="translate(608.2193548016544 435.46140243949503) rotate(42.56102310496686 -0.0007725605530026769 1.3755187452227062)"><path d="M0 0 C0 0.46, 0 2.29, 0 2.75 M0 0 C0 0.46, 0 2.29, 0 2.75" stroke="#000000" stroke-width="4" fill="none"></path></g></g><mask></mask><g stroke-linecap="round"><g transform="translate(601.6919500984225 432.8634988682627) rotate(62.251296117901056 -0.036283493417556656 -0.4946597105930266)"><path d="M0 0 C-0.01 -0.16, -0.06 -0.82, -0.07 -0.99 M0 0 C-0.01 -0.16, -0.06 -0.82, -0.07 -0.99" stroke="#000000" stroke-width="4" fill="none"></path></g></g><mask></mask><g stroke-linecap="round"><g transform="translate(602.8305881942247 434.5800787154152) rotate(52.26476958391158 -0.029712823746194772 -0.5234955972634339)"><path d="M0 0 C-0.01 -0.17, -0.05 -0.87, -0.06 -1.05 M0 0 C-0.01 -0.17, -0.05 -0.87, -0.06 -1.05" stroke="#000000" stroke-width="4" fill="none"></path></g></g><mask></mask><g stroke-linecap="round"><g transform="translate(604.5798995855407 435.9167797726857) rotate(52.26476958391158 -0.0417265757404266 -0.3928493502866388)"><path d="M0 0 C-0.01 -0.13, -0.07 -0.65, -0.08 -0.79 M0 0 C-0.01 -0.13, -0.07 -0.65, -0.08 -0.79" stroke="#000000" stroke-width="4" fill="none"></path></g></g><mask></mask><g stroke-linecap="round"><g transform="translate(606.2109780826681 436.83441233089025) rotate(47.803500746816404 -0.042003026958184364 -0.31453965193793465)"><path d="M0 0 C-0.01 -0.1, -0.07 -0.52, -0.08 -0.63 M0 0 C-0.01 -0.1, -0.07 -0.52, -0.08 -0.63" stroke="#000000" stroke-width="4" fill="none"></path></g></g><mask></mask><g stroke-linecap="round"><g transform="translate(609.0260534262037 438.6007286899819) rotate(34.110944478576826 -0.036283493417556656 -0.4946597105930266)"><path d="M0 0 C-0.01 -0.16, -0.06 -0.82, -0.07 -0.99 M0 0 C-0.01 -0.16, -0.06 -0.82, -0.07 -0.99" stroke="#000000" stroke-width="4" fill="none"></path></g></g><mask></mask><g stroke-linecap="round"><g transform="translate(610.8565037403785 439.47041748870436) rotate(24.124417944587346 -0.029712823746194772 -0.5234955972634339)"><path d="M0 0 C-0.01 -0.17, -0.05 -0.87, -0.06 -1.05 M0 0 C-0.01 -0.17, -0.05 -0.87, -0.06 -1.05" stroke="#000000" stroke-width="4" fill="none"></path></g></g><mask></mask><g stroke-linecap="round"><g transform="translate(612.9808807369634 439.83843141174157) rotate(24.124417944587346 -0.0417265757404266 -0.3928493502866388)"><path d="M0 0 C-0.01 -0.13, -0.07 -0.65, -0.08 -0.79 M0 0 C-0.01 -0.13, -0.07 -0.65, -0.08 -0.79" stroke="#000000" stroke-width="4" fill="none"></path></g></g><mask></mask><g stroke-linecap="round"><g transform="translate(615.1127919133486 440.0432380549548) rotate(19.66314910749217 -0.042003026958184364 -0.31453965193793465)"><path d="M0 0 C-0.01 -0.1, -0.07 -0.52, -0.08 -0.63 M0 0 C-0.01 -0.1, -0.07 -0.52, -0.08 -0.63" stroke="#000000" stroke-width="4" fill="none"></path></g></g><mask></mask></svg>